<?xml version="1.0" standalone="no"?>
<!DOCTYPE svg PUBLIC "-//W3C//DTD SVG 1.1//EN" "http://www.w3.org/Graphics/SVG/1.1/DTD/svg11.dtd" >
<svg xmlns="http://www.w3.org/2000/svg">
<metadata>Generated by IcoMoon</metadata>
<defs>
<font id="mi" horiz-adv-x="1024">
<font-face units-per-em="1024" ascent="960" descent="-64" />
<missing-glyph horiz-adv-x="1024" />
<glyph unicode="&#x20;" horiz-adv-x="512" d="" />
<glyph unicode="&#xe900;" glyph-name="add" d="M511.813 149.333q-13.68 0-22.747 9.2t-9.067 22.8v234.667h-234.667q-13.6 0-22.8 9.253t-9.2 22.933 9.2 22.747 22.8 9.067h234.667v234.667q0 13.6 9.253 22.8 9.254 9.2 22.933 9.2t22.747-9.2 9.067-22.8v-234.667h234.667q13.6 0 22.8-9.253 9.2-9.254 9.2-22.933t-9.2-22.747-22.8-9.067h-234.667v-234.667q0-13.6-9.253-22.8t-22.933-9.2z" />
<glyph unicode="&#xe901;" glyph-name="add-circle" d="M483.2 411.733v-145.067q0-13.6 9.253-22.8 9.254-9.2 22.933-9.2t22.747 9.2 9.067 22.8v145.067h146.133q13.6 0 22.8 9.253t9.2 22.933-9.2 22.747-22.8 9.067h-146.133v153.6q0 13.6-9.253 22.8t-22.933 9.2-22.747-9.2-9.067-22.8v-153.6h-152.533q-13.6 0-22.8-9.253-9.2-9.254-9.2-22.933t9.2-22.747 22.8-9.067h152.533zM512.284 21.333q-88.25 0-165.867 33.6t-135.75 91.733-91.733 135.83q-33.6 77.696-33.6 166.036t33.6 166.036 91.733 135.297 135.83 91.2q77.696 33.6 166.036 33.6t166.036-33.6 135.297-91.2 91.2-135.467 33.6-166.116-33.6-165.867-91.2-135.554-135.467-91.733-166.116-33.796zM512.533 85.333q150.933 0 256.533 106.133t105.6 257.067-105.399 256.533q-105.401 105.6-257.267 105.6-150.4 0-256.533-105.399-106.133-105.401-106.133-257.267 0-150.4 106.133-256.533t257.067-106.133z" />
<glyph unicode="&#xe902;" glyph-name="agent" d="M501.333 64q-13.6 0-22.8 9.253t-9.2 22.933 9.2 22.747 22.8 9.067h330.667v324.267q0 61.867-26.667 118.933t-71.467 100.8-102.4 69.867-119.467 26.133-119.467-26.133-102.4-69.867-71.467-100.8-26.667-118.933v-238.933q0-9.067-6.133-15.2t-15.2-6.133q-35.2 0-60.267 25.067t-25.067 60.267v85.333q0 24.533 11.733 43.2t30.933 30.4l3.2 56.533q9.6 77.867 44.267 140.8t86.4 106.667 116.267 67.733 133.867 24q70.4 0 134.933-24t115.733-68.267 85.867-106.667 44.267-139.2l3.2-55.467q19.2-9.6 30.933-28.267t11.733-41.067v-98.133q0-23.467-11.733-41.6t-30.933-27.733v-73.6q0-26.4-18.8-45.2t-45.2-18.8h-330.667zM384 373.333q-12.8 0-22.4 9.6t-9.6 22.933 9.6 22.4 22.933 9.067 22.4-9.2 9.067-22.8q0-12.8-9.2-22.4t-22.8-9.6zM640 373.333q-12.8 0-22.4 9.6t-9.6 22.933 9.6 22.4 22.933 9.067 22.4-9.2 9.067-22.8q0-12.8-9.2-22.4t-22.8-9.6zM257.067 428.8q-4.267 62.933 17.6 114.133t58.667 86.933 84.8 54.933 96 19.2q97.067 0 163.2-61.333t81.067-153.067q-100.267 1.067-176.533 53.867t-117.867 137.067q-17.067-86.4-72-153.067t-134.933-98.667z" />
<glyph unicode="&#xe903;" glyph-name="apps" d="M241.067 106.667q-29.867 0-50.133 20.267t-20.267 50.133 20.267 50.133 50.133 20.267 50.133-20.267 20.267-50.133-20.267-50.133-50.133-20.267zM512 106.667q-29.867 0-50.133 20.267t-20.267 50.133 20.267 50.133 50.133 20.267 50.133-20.267 20.267-50.133-20.267-50.133-50.133-20.267zM782.933 106.667q-29.867 0-50.133 20.267t-20.267 50.133 20.267 50.133 50.133 20.267 50.133-20.267 20.267-50.133-20.267-50.133-50.133-20.267zM241.067 377.6q-29.867 0-50.133 20.267t-20.267 50.133 20.267 50.133 50.133 20.267 50.133-20.267 20.267-50.133-20.267-50.133-50.133-20.267zM512 377.6q-29.867 0-50.133 20.267t-20.267 50.133 20.267 50.133 50.133 20.267 50.133-20.267 20.267-50.133-20.267-50.133-50.133-20.267zM782.933 377.6q-29.867 0-50.133 20.267t-20.267 50.133 20.267 50.133 50.133 20.267 50.133-20.267 20.267-50.133-20.267-50.133-50.133-20.267zM241.067 648.533q-29.867 0-50.133 20.267t-20.267 50.133 20.267 50.133 50.133 20.267 50.133-20.267 20.267-50.133-20.267-50.133-50.133-20.267zM512 648.533q-29.867 0-50.133 20.267t-20.267 50.133 20.267 50.133 50.133 20.267 50.133-20.267 20.267-50.133-20.267-50.133-50.133-20.267zM782.933 648.533q-29.867 0-50.133 20.267t-20.267 50.133 20.267 50.133 50.133 20.267 50.133-20.267 20.267-50.133-20.267-50.133-50.133-20.267z" />
<glyph unicode="&#xe904;" glyph-name="archive" d="M192 64q-25.6 0-44.8 19.2t-19.2 44.8v557.867q0 16 3.2 27.2t11.733 20.8l59.733 81.067q8.533 9.6 19.733 13.333t26.545 3.733h526.11q15.345 0 26.012-3.733t19.2-13.333l60.8-81.067q8.533-9.6 11.733-20.8t3.2-27.2v-557.867q0-25.6-19.2-44.8t-44.8-19.2h-640zM210.133 718.933h602.667l-38.836 49.067h-525.43l-38.4-49.067zM192 128h640v526.933h-640v-526.933zM512.142 236.8q6.258 0 11.591 2.133t10.667 7.467l122.667 122.667q8.533 8.343 8.533 21.238t-8.381 21.428-21.333 8.533-21.486-8.533l-70.4-70.4v182.4q0 13.6-9.253 22.8t-22.933 9.2-22.747-9.2-9.067-22.8v-182.4l-70.4 70.4q-8.343 8.533-21.238 8.533t-21.428-8.381-8.533-21.333 8.533-21.486l122.667-122.667q5.333-5.333 10.809-7.467t11.733-2.133zM192 128v0z" />
<glyph unicode="&#xe905;" glyph-name="arrow-back" d="M476.8 129.067l-296.533 296.533q-5.333 5.333-7.467 10.667t-2.133 11.733 2.133 11.733 7.467 10.667l297.6 297.6q8.533 8.533 21.333 8.533t22.4-9.6 9.6-22.4-9.6-22.4l-242.133-242.133h529.067q13.867 0 22.933-9.067t9.067-22.933-9.067-22.933-22.933-9.067h-529.067l243.2-243.2q8.533-8.533 8.533-21.333t-9.6-22.4-22.4-9.6-22.4 9.6z" />
<glyph unicode="&#xe906;" glyph-name="arrow-downward" d="M512 119.467q-5.333 0-11.307 2.181t-11.093 7.419l-296.533 296.533q-9.6 9.387-9.6 22.293t9.6 22.507 22.4 9.6 22.4-9.6l242.133-242.133v529.067q0 13.949 9.253 22.974 9.254 9.026 22.933 9.026t22.747-9.2 9.067-22.8v-529.067l242.133 242.133q9.6 9.6 22.4 9.6t22.4-9.431 9.6-22.4-9.6-22.569l-296.533-296.533q-5.333-5.333-10.764-7.467t-11.636-2.133z" />
<glyph unicode="&#xe907;" glyph-name="arrow-forward" d="M489.6 130.133q-8.533 8.533-8.533 22.4t8.533 22.4l241.067 241.067h-528q-13.867 0-22.933 9.067t-9.067 22.933 9.067 22.933 22.933 9.067h528l-241.067 241.067q-8.533 8.533-8.533 22.933t8.533 22.933 22.4 8.533 22.4-8.533l296.533-296.533q5.333-5.333 7.467-10.667t2.133-11.733q0-5.333-2.133-11.2t-7.467-11.2l-296.533-296.533q-8.533-8.533-22.4-8t-22.4 9.067z" />
<glyph unicode="&#xe908;" glyph-name="arrow-upward" d="M511.813 106.667q-13.68 0-22.747 9.2t-9.067 22.8v529.067l-242.133-242.133q-9.387-9.6-22.293-9.6t-22.507 9.6-9.6 22.4 9.6 22.4l296.533 296.533q5.12 5.236 11.093 7.419 5.973 2.181 11.754 2.181t11.2-2.133 10.753-7.467l296.533-296.533q9.6-9.6 9.6-22.4t-9.431-22.4-22.4-9.6-22.569 9.6l-242.133 242.133v-529.067q0-13.6-9.253-22.8t-22.933-9.2z" />
<glyph unicode="&#xe909;" glyph-name="atm" d="M421.333 276.267h61.867v-16q0-13.6 9.253-22.8 9.254-9.2 22.933-9.2t22.747 9.2 9.067 22.8v16h51.2q16 0 26.133 12.8t10.133 28.8v122.395q0 17.339-10.133 29.605t-26.133 12.267h-145.067v73.6h149.333q13.6 0 22.8 9.253 9.2 9.254 9.2 22.933 0 13.68-9.2 22.747t-22.8 9.067h-55.467v16q0 13.6-9.253 22.8t-22.933 9.2-22.747-9.2-9.067-22.8v-16h-52.267q-16 0-28.8-12.8t-12.8-29.991v-121.35q0-17.191 12.8-27.325t28.8-10.133h139.733v-77.867h-149.333q-13.6 0-22.8-9.253t-9.2-22.933 9.2-22.747 22.8-9.067zM149.333 106.667q-25.6 0-44.8 19.2t-19.2 44.8v554.667q0 25.6 19.2 44.8t44.8 19.2h725.333q26.4 0 45.2-19.2t18.8-44.8v-554.667q0-25.6-18.8-44.8t-45.2-19.2h-725.333zM149.333 170.667v0zM149.333 170.667h725.333v554.667h-725.333v-554.667z" />
<glyph unicode="&#xe90a;" glyph-name="bag" d="M234.667 21.333q-25.6 0-44.8 19.2t-19.2 44.8v554.667q0 25.6 19.2 44.8t44.8 19.2h117.333v10.667q0 67.2 46.4 113.6t113.6 46.4 113.6-46.4 46.4-113.6v-10.667h117.333q25.6 0 44.8-19.2t19.2-44.8v-554.667q0-25.6-19.2-44.8t-44.8-19.2h-554.667zM234.667 85.333h554.667v554.667h-117.333v-96q0-13.6-9.253-22.8t-22.933-9.2-22.747 9.2-9.067 22.8v96h-192v-96q0-13.6-9.253-22.8-9.254-9.2-22.933-9.2-13.68 0-22.747 9.2t-9.067 22.8v96h-117.333v-554.667zM416 704h192v10.667q0 40.533-27.733 68.267t-68.267 27.733-68.267-27.733-27.733-68.267v-10.667zM234.667 85.333v0z" />
<glyph unicode="&#xe90b;" glyph-name="bell-edit" d="M532.267 385.067q-6.4 0-11.2 4.8t-4.8 11.2v31.382q0 1.459 4.267 10.218l240 240 53.333-53.333-239.65-239.65q-2.483-2.483-11.094-4.617h-30.855zM841.6 657.067l39.467 39.467q6.4 6.4 6.4 13.333t-6.4 13.333l-28.8 28.8q-5.333 5.333-11.2 5.333t-11.2-5.333l-41.6-41.6 53.333-53.333zM202.667 149.333q-13.6 0-22.8 9.253t-9.2 22.933 9.2 22.747 22.8 9.067h57.6v326.4q0 90.667 53.867 160t138.133 87.467v30.933q0 24.533 17.349 40.533t42.133 16 42.384-16 17.6-40.533v-30.746q39.467-6.588 69.333-26.321t58.667-48.533l-45.867-45.867q-29.867 30.933-64 46.933t-77.867 16q-80 0-133.867-54.933t-53.867-134.933v-326.4h376.533v212.267l64 64v-276.267h56.533q13.6 0 22.8-9.253t9.2-22.933-9.2-22.747-22.8-9.067h-618.667zM512 21.333q-35.2 0-60.267 25.067t-25.067 60.267h170.667q0-35.2-25.067-60.267t-60.267-25.067z" />
<glyph unicode="&#xe90c;" glyph-name="block" d="M512 21.333q-88.533 0-166.4 33.6t-135.467 91.2-91.2 135.467-33.6 166.4 33.6 166.4 91.2 135.467 135.467 91.2 166.4 33.6 166.4-33.6 135.467-91.2 91.2-135.467 33.6-166.4-33.6-166.4-91.2-135.467-135.467-91.2-166.4-33.6zM512 85.333q151.867 0 257.267 105.399 105.399 105.401 105.399 257.267 0 64.706-22.4 124.62t-62.933 108.98l-510.933-510.933q48-41.6 108.259-63.467t125.341-21.867zM235.733 214.4l509.867 509.867q-49.067 41.6-108.98 64t-124.62 22.4q-151.867 0-257.267-105.399-105.399-105.401-105.399-257.267 0-65.081 23.467-125.34t62.933-108.26z" />
<glyph unicode="&#xe90d;" glyph-name="bookmark" d="M277.333 161.067l234.667 99.2 234.667-99.2v612.267h-469.333v-612.267zM258.133 83.2q-16-7.467-30.4 2.133t-14.4 26.667v661.333q0 25.6 19.2 44.8t44.8 19.2h469.333q25.6 0 44.8-19.2t19.2-44.8v-661.333q0-17.067-14.4-26.667t-30.4-2.133l-253.867 108.8-253.867-108.8zM277.333 773.333v0z" />
<glyph unicode="&#xe90e;" glyph-name="bookmark-add" d="M258.133 83.2q-16-7.467-30.4 2.133t-14.4 26.667v661.333q0 25.6 19.2 44.8t44.8 19.2h309.333v-64h-309.333v-612.267l234.667 99.2 234.667-99.2v356.267h64v-405.333q0-17.067-14.4-26.667t-30.4-2.133l-253.867 108.8-253.867-108.8zM277.333 773.333v0zM778.48 581.333q-13.68 0-22.747 9.2t-9.067 22.8v64h-64q-13.6 0-22.8 9.253-9.2 9.254-9.2 22.933 0 13.68 9.2 22.747t22.8 9.067h64v64q0 13.6 9.253 22.8t22.933 9.2 22.747-9.2 9.067-22.8v-64h64q13.6 0 22.8-9.253t9.2-22.933-9.2-22.747-22.8-9.067h-64v-64q0-13.6-9.253-22.8t-22.933-9.2z" />
<glyph unicode="&#xe90f;" glyph-name="bookmark-added" d="M763.591 594.133q-6.258 0-11.591 2.133t-10.667 7.467l-68.267 68.267q-9.6 9.671-9.6 22.969t9.6 21.831q8.605 10.667 21.902 10.667t22.898-9.6l45.867-45.867 135.467 136.533q9.6 9.6 22.4 9.6t23.2-9.71q8.8-9.711 8.8-23.467 0-13.757-8.533-22.29l-158.933-158.933q-5.333-5.333-10.809-7.467t-11.733-2.133zM258.133 83.2q-16-7.467-30.4 2.133t-14.4 26.667v661.333q0 25.6 19.2 44.8t44.8 19.2h309.333v-64h-309.333v-612.267l234.667 99.2 234.667-99.2v356.267h64v-405.333q0-17.067-14.4-26.667t-30.4-2.133l-253.867 108.8-253.867-108.8zM277.333 773.333v0z" />
<glyph unicode="&#xe910;" glyph-name="bookmark-remove" d="M258.133 83.2q-16-7.467-30.4 2.133t-14.4 26.667v661.333q0 25.6 19.2 44.8t44.8 19.2h309.333v-64h-309.333v-612.267l234.667 99.2 234.667-99.2v356.267h64v-405.333q0-17.067-14.4-26.667t-30.4-2.133l-253.867 108.8-253.867-108.8zM277.333 773.333v0zM682.667 677.333q-13.6 0-22.8 9.253-9.2 9.254-9.2 22.933 0 13.68 9.2 22.747t22.8 9.067h192q13.6 0 22.8-9.253t9.2-22.933-9.2-22.747-22.8-9.067h-192z" />
<glyph unicode="&#xe911;" glyph-name="bookmarks" d="M863.813 74.667q-13.68 0-22.747 9.2t-9.067 22.8v746.667h-551.467q-13.6 0-22.8 9.253t-9.2 22.933 9.2 22.747 22.8 9.067h551.467q25.6 0 44.8-19.2t19.2-44.8v-746.667q0-13.6-9.253-22.8t-22.933-9.2zM192 75.733l256 109.867 256-109.867v649.6h-512v-649.6zM172.8-2.133q-16-7.467-30.4 1.6t-14.4 27.2v698.667q0 25.6 19.2 44.8t44.8 19.2h512q25.6 0 45.333-19.2t19.733-44.8v-698.667q0-18.133-14.4-26.667t-30.4-2.133l-276.267 116.267-275.2-116.267zM192 725.333v0z" />
<glyph unicode="&#xe912;" glyph-name="box" d="M192 64q-25.6 0-44.8 19.2t-19.2 44.8v640q0 25.6 19.2 44.8t44.8 19.2h640q25.6 0 44.8-19.2t19.2-44.8v-640q0-25.6-19.2-44.8t-44.8-19.2h-640zM192 128h640v640h-640v-640z" />
<glyph unicode="&#xe913;" glyph-name="box-check" d="M192 64q-26.4 0-45.2 18.8t-18.8 45.2v640q0 26.4 18.8 45.2t45.2 18.8h640q14.933 0 27.2-6.4t19.733-14.933l-46.933-46.933v4.267h-640v-640h640v365.867l64 64v-429.867q0-26.4-18.8-45.2t-45.2-18.8h-640zM491.733 243.2l-236.8 236.8 44.8 44.8 192-192 407.467 407.467 44.8-44.8-452.267-452.267z" />
<glyph unicode="&#xe914;" glyph-name="camera" d="M511.467 219.733q77.333 0 129.6 52.267t52.267 129.6-52.267 129.067-129.6 51.733-129.067-51.733-51.733-129.067 51.733-129.6 129.067-52.267zM149.333 64q-25.6 0-44.8 19.2t-19.2 44.8v547.2q0 24.533 19.2 44.267t44.8 19.733h156.8l58.667 70.4q8.533 11.733 21.333 17.067t27.733 5.333h196.267q14.933 0 27.733-5.333t21.333-17.067l58.667-70.4h156.8q24.533 0 44.267-19.733t19.733-44.267v-547.2q0-25.6-19.733-44.8t-44.267-19.2h-725.333zM874.667 128v547.2h-725.333v-547.2h725.333z" />
<glyph unicode="&#xe915;" glyph-name="camera-add" d="M462.4 170.667q77.333 0 129.6 52.267t52.267 129.6-52.267 129.067-129.6 51.733-129.067-51.733-51.733-129.067 51.733-129.6 129.067-52.267zM100.267 14.933q-25.6 0-44.8 19.2t-19.2 44.8v547.2q0 24.533 19.2 44.267t44.8 19.733h156.8l58.667 70.4q8.533 11.733 21.333 17.067t27.733 5.333h236.8q13.6 0 22.8-9.2t9.2-22.8v-124.8h-533.333v-547.2h725.333v419.2h32q6.4 0 12.246-2.447t10.133-6.933 6.954-10.399 2.667-12.221v-387.2q0-25.6-19.733-44.8t-44.267-19.2h-725.333zM825.6 690.133h-59.733q-13.6 0-22.8 9.253-9.2 9.254-9.2 22.933 0 13.68 9.2 22.747t22.8 9.067h59.733v60.8q0 13.6 9.253 22.8t22.933 9.2 22.747-9.2 9.067-22.8v-60.8h60.8q13.6 0 22.8-9.253t9.2-22.933-9.2-22.747-22.8-9.067h-60.8v-59.733q0-13.6-9.253-22.8t-22.933-9.2-22.747 9.2-9.067 22.8v59.733zM100.267 626.133v0z" />
<glyph unicode="&#xe916;" glyph-name="camera-off" d="M938.667 114.133l-64 62.933v498.133h-498.133l-67.2 67.2 55.467 67.2q8.533 11.733 21.333 17.067t27.733 5.333h196.267q14.933 0 27.733-5.333t21.333-17.067l58.667-70.4h156.8q24.533 0 44.267-19.733t19.733-44.267v-561.067zM689.067 362.667l-215.467 215.467q46.933 8.533 89.6-2.667t77.867-45.867 45.867-76.8 2.133-90.133zM220.8 739.2l64-64h-135.467v-547.2h590.933l-123.733 123.733q-21.333-14.933-48-23.467t-56.533-8.533q-77.867 0-129.6 52.267t-51.733 129.067q0 29.867 8.533 56.533t23.467 48l-312.533 312.533q-9.6 9.671-9.6 22.969t9.657 22.898q9.655 9.6 22.933 9.6 13.277 0 22.877-9.6l816-816q9.6-9.6 9.6-22.4t-9.657-22.4q-9.655-9.6-22.933-9.6t-22.877 9.6l-61.867 60.8h-654.933q-25.6 0-44.8 19.2t-19.2 44.8v547.2q0 25.6 19.2 44.8t44.8 19.2h71.467z" />
<glyph unicode="&#xe917;" glyph-name="cancel" d="M512 403.2l137.6-137.6q9.6-9.6 22.4-9.6t22.4 9.6 9.6 22.4-9.6 22.4l-137.6 137.6 137.6 137.6q9.6 9.6 9.6 22.4t-9.6 22.4-22.4 9.6-22.4-9.6l-137.6-137.6-137.6 137.6q-9.6 9.6-22.4 9.6t-22.4-9.6-9.6-22.4 9.6-22.4l137.6-137.6-137.6-137.6q-9.6-9.6-9.6-22.4t9.6-22.4 22.4-9.6 22.4 9.6l137.6 137.6zM512 21.333q-87.467 0-165.333 33.6t-136 91.733-91.733 136-33.6 165.333q0 88.533 33.6 166.4t91.733 135.467 136 91.2 165.333 33.6q88.533 0 166.4-33.6t135.467-91.2 91.2-135.467 33.6-166.4q0-87.467-33.6-165.333t-91.2-136-135.467-91.733-166.4-33.6zM512 85.333q151.467 0 257.067 106.133t105.6 256.533q0 151.467-105.6 257.067t-257.067 105.6q-150.4 0-256.533-105.6t-106.133-257.067q0-150.4 106.133-256.533t256.533-106.133z" />
<glyph unicode="&#xe918;" glyph-name="cart" d="M305.907 22.4q-31.774 0-54.174 22.626t-22.4 54.4 22.404 54.174 53.867 22.4q31.462 0 54.396-22.626 22.933-22.627 22.933-54.4t-22.626-54.174q-22.627-22.4-54.4-22.4zM732.574 22.4q-31.774 0-54.174 22.626t-22.4 54.4 22.404 54.174 53.867 22.4 54.396-22.626 22.933-54.4-22.626-54.174-54.4-22.4zM250.667 726.4l117.333-243.2h307.2l133.333 243.2h-557.867zM295.467 244.267q-44.8 0-64.533 29.867t0.533 67.2l68.267 125.867-162.133 343.467h-52.267q-12.8 0-21.867 9.6t-9.067 22.933 9.2 22.4 22.8 9.067h72.533q9.6 0 17.28-4.731t11.52-13.403l30.933-66.133h628.267q34.133 0 43.2-20.8t-5.867-46.4l-144-259.2q-10.667-18.133-29.867-31.467t-41.6-13.333h-323.2l-59.733-110.933h492.8q12.8 0 21.867-9.6t9.067-22.933-9.2-22.4-22.8-9.067h-482.133zM368 483.2v0z" />
<glyph unicode="&#xe919;" glyph-name="category" d="M336 497.067q-18.791 0-28.596 16.533-9.804 16.533 0.863 32.533l178.133 284.8q9.372 14.933 26.553 14.933t26.781-14.933l178.133-284.8q10.667-16 0.862-32.533-9.804-16.533-28.595-16.533h-354.133zM753.067 21.333q-78.933 0-132.267 53.333t-53.333 132.267 53.333 132.267 132.267 53.333 132.267-53.333 53.333-132.267-53.333-132.267-132.267-53.333zM160 48q-13.6 0-22.8 9.2t-9.2 22.8v260.267q0 13.6 9.2 22.8t22.8 9.2h260.267q13.6 0 22.8-9.2t9.2-22.8v-260.267q0-13.6-9.2-22.8t-22.8-9.2h-260.267zM753.157 85.333q51.109 0 86.309 35.29 35.2 35.291 35.2 86.4 0 51.11-35.29 86.31-35.291 35.2-86.401 35.2t-86.309-35.29-35.2-86.4 35.29-86.31 86.401-35.2zM192 112h196.267v196.267h-196.267v-196.267zM393.6 561.067h238.933l-119.467 193.067-119.467-193.067z" />
<glyph unicode="&#xe91a;" glyph-name="close" d="M512 403.2l-224-224q-9.6-9.6-22.4-9.6t-22.4 9.6-9.6 22.4 9.6 22.4l224 224-224 224q-9.6 9.6-9.6 22.4t9.6 22.4 22.4 9.6 22.4-9.6l224-224 224 224q9.6 9.6 22.4 9.6t22.4-9.6 9.6-22.4-9.6-22.4l-224-224 224-224q9.6-9.6 9.6-22.4t-9.6-22.4-22.4-9.6-22.4 9.6l-224 224z" />
<glyph unicode="&#xe91b;" glyph-name="cloud" d="M267.733 106.667q-93.867 0-159.467 65.6t-65.6 159.467q0 83.2 53.333 146.133t135.467 75.733q21.333 103.467 100.267 169.067t182.4 65.6q119.467 0 201.6-86.933t82.133-208.533v-25.6q76.8 2.133 130.133-49.6t53.333-130.667q0-73.6-53.333-126.933t-126.933-53.333h-533.333zM267.733 170.667h533.333q48 0 82.133 34.133t34.133 82.133-34.133 82.133-82.133 34.133h-67.2v89.6q0 97.067-65.067 164.267t-158.933 67.2-159.467-67.2-65.6-164.267h-20.267q-66.133 0-112-46.4t-45.867-114.667q0-67.2 46.933-114.133t114.133-46.933z" />
<glyph unicode="&#xe91c;" glyph-name="cloud-done" d="M267.733 106.667q-93.867 0-159.467 65.6t-65.6 159.467q0 83.2 53.333 146.133t135.467 75.733q21.333 103.467 100.267 169.067t182.4 65.6q119.467 0 201.6-86.933t82.133-208.533v-25.6q76.8 2.133 130.133-49.6t53.333-130.667q0-73.6-53.333-126.933t-126.933-53.333h-533.333zM439.467 246.4q6.4 0 11.733 2.133t10.667 7.467l201.6 201.6q8.533 8.533 8.533 21.333t-8.533 21.333-21.333 8.533-21.333-8.533l-180.267-180.267-85.333 85.333q-8.533 8.533-21.333 8.533t-21.333-8.533-8.533-21.867 8.533-21.867l104.533-105.6q5.333-5.333 10.667-7.467t11.733-2.133zM267.733 170.667h533.333q48 0 82.133 34.133t34.133 82.133-34.133 82.133-82.133 34.133h-67.2v89.6q0 97.067-65.067 164.267t-158.933 67.2-159.467-67.2-65.6-164.267h-20.267q-66.133 0-112-46.4t-45.867-114.667 47.467-114.667 113.6-46.4z" />
<glyph unicode="&#xe91d;" glyph-name="cloud-download" d="M267.733 106.667q-93.867 0-159.467 65.6t-65.6 159.467q0 84.267 53.867 146.667t134.933 75.2q16 89.6 87.467 158.4t162.133 68.8q25.6 0 44.8-14.4t19.2-38.933v-313.6l66.133 66.133q9.6 9.6 22.933 9.6t22.933-9.6 9.6-22.933-9.6-22.933l-121.6-121.6q-5.333-5.333-10.667-7.467t-11.733-2.133-11.733 2.133-10.667 7.467l-121.6 121.6q-9.6 9.6-9.067 22.933t10.133 22.933 22.933 9.6 22.933-9.6l65.067-66.133v308.267q-91.733-11.733-144-80.533t-52.267-148.8h-20.267q-65.067 0-111.467-45.867t-46.4-115.2 48-115.2 113.067-45.867h533.333q48 0 82.133 34.133t34.133 82.133-34.133 82.133-82.133 34.133h-67.2v89.6q0 72.533-35.2 125.333t-90.667 83.733v69.333q86.4-30.933 138.133-107.733t51.733-170.667v-25.6q76.8 2.133 130.133-49.067t53.333-131.2q0-73.6-53.333-126.933t-126.933-53.333h-533.333z" />
<glyph unicode="&#xe91e;" glyph-name="cloud-off" d="M910.933 151.467l-50.133 50.133q26.667 18.133 41.6 40.533t14.933 53.333q0 45.867-33.067 78.4t-78.933 32.533h-71.467v86.4q0 93.867-65.067 157.333t-158.429 63.467q-30.371 0-65.038-9.6t-63.467-30.933l-44.8 44.8q38.4 30.933 82.667 45.333t90.133 14.4q118.4 0 203.2-84.267t84.8-202.667v-22.4q76.8 1.067 130.133-48t53.333-124.8q0-37.333-17.6-78.4t-52.8-65.6zM850.133 19.2l-100.267 99.2h-485.333q-93.867 0-157.867 62.933t-64 156.8q0 85.333 53.867 142.933t134.933 70.4q2.133 14.933 6.933 33.6t13.333 33.6l-154.667 154.667q-9.6 9.6-9.6 22.4t9.6 22.4 22.4 9.6 22.4-9.6l754.133-754.133q9.6-9.6 9.6-22.4t-9.6-22.4-22.898-9.6-22.969 9.6zM264.533 182.4h423.467l-384 384q-11.733-16-15.467-36.267t-3.733-39.467h-20.267q-66.133 0-112-42.133t-45.867-107.733 45.867-112 112-46.4z" />
<glyph unicode="&#xe91f;" glyph-name="cloud-upload" d="M266.667 106.667q-91.733 0-157.867 66.133t-66.133 157.867q0 83.2 52.8 146.667t136 76.267q21.333 103.467 100.267 169.067t182.4 65.6q120.533 0 202.133-86.933t81.6-208.533v-25.6q76.8 2.133 130.133-49.6t53.333-130.667q0-73.6-53.333-126.933t-126.933-53.333h-257.067q-25.6 0-44.8 19.2t-19.2 44.8v275.2l-66.133-66.133q-9.6-9.6-22.4-9.067t-22.4 10.133-9.6 22.933 9.6 22.933l120.533 120.533q5.333 5.333 10.809 7.467t11.733 2.133q6.258 0 11.591-2.133t10.667-7.467l121.6-121.6q9.6-9.6 9.6-22.4t-9.6-22.4-22.933-9.6-22.933 9.6l-66.133 65.067v-275.2h257.067q48 0 82.133 34.133t34.133 82.133-34.133 82.133-82.133 34.133h-67.2v89.6q0 94.933-64.533 163.2t-159.467 68.267-160-68.267-65.067-163.2h-20.267q-66.133 0-112-46.4t-45.867-114.667q0-66.133 46.858-113.6 46.857-47.467 113.142-47.467h117.333q13.6 0 22.8-9.253t9.2-22.933-9.2-22.747-22.8-9.067h-117.333z" />
<glyph unicode="&#xe920;" glyph-name="collapse" d="M279.467 327.467q-9.6 9.6-10.133 22.4t9.067 22.4l211.2 211.2q5.333 5.333 10.667 7.467t11.733 2.133 11.733-2.133 10.667-7.467l211.2-210.133q9.6-8.533 9.6-21.867t-9.6-22.933-22.933-9.6-22.933 9.6l-187.733 186.667-187.733-188.8q-8.533-9.6-21.867-9.067t-22.933 10.133z" />
<glyph unicode="&#xe921;" glyph-name="collapse-content" d="M554.667 746.667v-256h256v64h-192v192h-64zM213.333 405.333v-64h192v-192h64v256h-256z" />
<glyph unicode="&#xe922;" glyph-name="crop" d="M741.333 282.667v394.667h-394.667v64h394.667q25.6 0 44.8-19.2t19.2-44.8v-394.667h-64zM773.147-21.333q-13.68 0-22.747 9.195-9.067 9.205-9.067 22.805v144h-458.667q-25.6 0-44.8 19.2t-19.2 44.8v458.667h-144q-13.6 0-22.8 9.253-9.2 9.254-9.2 22.933 0 13.68 9.2 22.747t22.8 9.067h144v144q0 13.6 9.253 22.8 9.254 9.2 22.933 9.2 13.68 0 22.747-9.2t9.067-22.8v-666.667h666.667q13.6 0 22.8-9.253t9.2-22.933-9.2-22.747-22.8-9.067h-144v-144q0-13.6-9.253-22.805-9.254-9.195-22.933-9.195z" />
<glyph unicode="&#xe923;" glyph-name="crop-free" d="M159.813 584.533q-13.68 0-22.747 9.2t-9.067 22.8v151.467q0 25.6 19.2 44.8t44.8 19.2h151.467q13.6 0 22.8-9.253 9.2-9.254 9.2-22.933 0-13.68-9.2-22.747t-22.8-9.067h-151.467v-151.467q0-13.6-9.253-22.8t-22.933-9.2zM192 64q-25.6 0-44.8 19.2t-19.2 44.8v151.467q0 13.6 9.253 22.8 9.254 9.2 22.933 9.2 13.68 0 22.747-9.2t9.067-22.8v-151.467h151.467q13.6 0 22.8-9.253t9.2-22.933-9.2-22.747-22.8-9.067h-151.467zM680.533 64q-13.6 0-22.8 9.253t-9.2 22.933 9.2 22.747 22.8 9.067h151.467v151.467q0 13.6 9.253 22.8t22.933 9.2 22.747-9.2 9.067-22.8v-151.467q0-25.6-19.2-44.8t-44.8-19.2h-151.467zM863.813 584.533q-13.68 0-22.747 9.2t-9.067 22.8v151.467h-151.467q-13.6 0-22.8 9.253t-9.2 22.933 9.2 22.747 22.8 9.067h151.467q25.6 0 44.8-19.2t19.2-44.8v-151.467q0-13.6-9.253-22.8t-22.933-9.2z" />
<glyph unicode="&#xe924;" glyph-name="currency-exchange" d="M512-21.333q-119.467 0-230.4 70.4t-174.933 161.067v-114.133q0-13.867-9.067-22.933t-22.933-9.067-22.933 9.067-9.067 22.933v192q0 13.867 9.067 22.933t22.933 9.067h192q13.867 0 22.933-9.067t9.067-22.933-9.067-22.933-22.933-9.067h-114.133q54.4-82.133 155.2-147.733t204.267-65.6q160 0 276.267 108.267t128 265.067q1.067 13.867 10.133 22.933t22.933 9.067 22.933-9.6 8-22.4q-6.4-91.733-45.333-171.2t-101.867-138.667-145.6-93.333-175.467-34.133zM74.667 448q-13.867 0-22.933 9.6t-8 22.4q6.4 91.733 45.333 171.2t101.867 138.667 145.6 93.333 175.467 34.133q119.467 0 230.4-70.4t174.933-161.067v114.133q0 13.867 9.067 22.933t22.933 9.067 22.933-9.067 9.067-22.933v-192q0-13.867-9.067-22.933t-22.933-9.067h-192q-13.867 0-22.933 9.067t-9.067 22.933 9.067 22.933 22.933 9.067h114.133q-54.4 82.133-154.667 147.733t-204.8 65.6q-160 0-276.267-108.267t-128-265.067q-1.067-13.867-10.133-22.933t-22.933-9.067zM510.933 141.867q-11.733 0-20.8 8.533t-9.067 20.267v28.8q-40.533 10.667-69.867 32.533t-50.667 57.067q-7.467 11.733-2.667 22.933t18.667 16.533q9.6 3.2 18.667-1.6t14.4-13.333q16-30.933 45.333-48t64.533-17.067q41.6 0 70.4 24t28.8 59.2q0 34.133-24.533 55.467t-100.267 50.133q-73.6 27.733-100.8 58.667t-27.2 83.2q0 48 31.467 80t85.867 39.467v25.6q0 11.733 9.067 20.267t20.8 8.533 20.267-8.533 8.533-20.267v-25.6q33.067-3.2 59.2-18.133t44.267-40.533q7.467-9.6 3.733-21.333t-15.467-17.067q-9.6-5.333-20.267-2.133t-18.133 11.733q-14.933 19.2-35.2 28.8t-45.867 9.6q-41.6 0-65.6-18.667t-24-51.733q0-35.2 25.067-57.067t92.267-44.267q74.667-24.533 105.067-57.6t30.4-88.533-36.8-91.2-100.8-43.2v-25.6q0-11.733-8.533-20.8t-20.267-9.067z" />
<glyph unicode="&#xe925;" glyph-name="day" d="M511.813 757.333q-13.68 0-22.747 9.2t-9.067 22.8v96q0 13.6 9.253 22.8 9.254 9.2 22.933 9.2t22.747-9.2 9.067-22.8v-96q0-13.6-9.253-22.8t-22.933-9.2zM730.667 666.667q-9.6 9.6-9.6 22.507t9.6 22.293l67.2 68.267q9.671 9.6 22.969 9.6t22.898-9.6 9.6-22.4-9.6-22.4l-68.267-68.267q-9.6-9.6-22.4-9.6t-22.4 9.6zM853.333 416q-13.6 0-22.8 9.253t-9.2 22.933 9.2 22.747 22.8 9.067h96q13.6 0 22.8-9.253 9.2-9.254 9.2-22.933t-9.2-22.747-22.8-9.067h-96zM511.813-21.333q-13.68 0-22.747 9.195-9.067 9.205-9.067 22.805v96q0 13.6 9.253 22.8 9.254 9.2 22.933 9.2t22.747-9.2 9.067-22.8v-96q0-13.6-9.253-22.805-9.254-9.195-22.933-9.195zM248.533 666.667l-68.267 67.2q-9.6 9.461-9.6 22.864t10.017 23.003q9.183 9.6 21.983 9.6t22.4-9.6l68.267-68.267q9.6-9.6 9.6-22.4t-9.6-22.4q-9.891-8.533-23.078-8.533-13.188 0-21.722 8.533zM798.933 116.267l-68.267 68.267q-9.6 9.387-9.6 22.293t9.6 22.507q8.8 8.533 22 8.533t22.8-8.533l69.333-67.2q9.6-9.6 9.204-23.043-0.395-13.444-9.094-22.933-9.489-9.49-22.933-9.49t-23.043 9.6zM74.667 416q-13.6 0-22.8 9.253t-9.2 22.933 9.2 22.747 22.8 9.067h96q13.6 0 22.8-9.253 9.2-9.254 9.2-22.933t-9.2-22.747-22.8-9.067h-96zM180.267 116.684q-9.6 9.183-9.6 21.983t9.6 22.4l68.267 68.267q8.8 8.533 22 8.533t22.8-8.8q9.6-9.6 9.6-22.8t-9.6-22.8l-67.2-67.2q-9.461-9.6-22.864-9.6t-23.003 10.017zM512 192q-106.667 0-181.333 74.667t-74.667 181.333 74.667 181.333 181.333 74.667 181.333-74.667 74.667-181.333-74.667-181.333-181.333-74.667zM512 256q80 0 136 56t56 136-56 136-136 56-136-56-56-136 56-136 136-56z" />
<glyph unicode="&#xe926;" glyph-name="delete" d="M278.4 64q-25.6 0-44.8 19.2t-19.2 44.8v608h-11.733q-13.6 0-22.8 9.253-9.2 9.254-9.2 22.933 0 13.68 9.2 22.747t22.8 9.067h168.533q0 13.867 9.2 22.933t22.8 9.067h217.6q13.6 0 22.8-9.2t9.2-22.8h168.533q13.6 0 22.8-9.253 9.2-9.254 9.2-22.933 0-13.68-9.2-22.747t-22.8-9.067h-11.733v-608q0-25.6-19.2-44.8t-44.8-19.2h-467.2zM278.4 736v-608h467.2v608h-467.2zM391.467 251.733q0-13.6 9.253-22.8 9.254-9.2 22.933-9.2 13.68 0 22.747 9.2t9.067 22.8v361.6q0 13.6-9.253 22.8-9.254 9.2-22.933 9.2-13.68 0-22.747-9.2t-9.067-22.8v-361.6zM568.533 251.733q0-13.6 9.253-22.8t22.933-9.2 22.747 9.2 9.067 22.8v361.6q0 13.6-9.253 22.8t-22.933 9.2-22.747-9.2-9.067-22.8v-361.6zM278.4 736v0z" />
<glyph unicode="&#xe927;" glyph-name="doctor" d="M512 149.333q-68.267 0-135.467 5.867t-134.4 15.772q-30.933 3.962-51.2 28.282t-20.267 56.747v24.533q-57.6 17.067-92.8 62.933t-35.2 104.533q0 57.6 35.733 102.4t92.267 62.933v48.437q0 33.696 24 59.296t59.2 25.6q30.933 0 61.867-5.867t62.933-8q33.067-2.133 66.133-3.733t67.2-1.6q33.067 0 66.133 1.6t67.2 4.16q30.933 1.707 61.333 7.573t61.333 5.867q35.2 0 60.267-25.067t25.067-60.267v-48q55.467-18.133 91.733-62.933t36.267-102.4q0-58.667-36.267-103.467t-91.733-62.933v-25.6q0-32-20.267-56t-51.2-28.667q-67.2-10.267-134.755-16.133-67.556-5.867-135.111-5.867zM512 213.333q69.333 0 138.667 6.133t138.667 18.4v0 448q-69.333-10.667-138.133-16.533t-139.2-5.867q-70.489 0-139.822 5.647t-137.511 16.753q-1.067 0-0.533-0.533t0.533 0.533v-447.942q69.333-11.791 138.089-18.191t139.245-6.4zM512.533 309.333q45.333 0 89.6 5.333t89.067 17.067q12.8 3.2 19.2 14.933t3.2 24.533-14.933 19.2-24.533 3.2q-40.533-10.667-81.067-15.467t-81.067-4.8-81.6 4.267-80.533 16q-12.8 4.267-24.533-2.667t-14.933-19.733 3.733-23.467 18.667-14.933q43.733-12.8 88.54-18.133t91.194-5.333zM170.667 345.6v202.667q-29.867-12.8-46.933-40.421-17.067-27.62-17.067-59.845 0-33.582 17.067-61.057t46.933-41.343zM853.333 346.667q28.8 13.867 46.4 41.087t17.6 60.49q0 31.757-18.133 58.957t-45.867 42.133v-202.667zM512.523 480q44.975 0 89.426 5.333t89.251 17.067q12.8 3.2 19.2 14.933t3.2 24.533-14.933 19.2-24.533 3.2q-40.533-10.667-81.067-15.467t-81.067-4.8-81.067 4.8-81.067 15.467q-12.8 3.2-24.113-3.006t-15.354-19.394q-3.2-12.8 3.2-24.533t19.2-14.933q44.8-11.733 89.251-17.067t90.471-5.333zM234.667 236.8v0z" />
<glyph unicode="&#xe928;" glyph-name="done" d="M403.2 211.2q-6.4 0-11.733 2.133t-10.667 7.467l-193.067 193.067q-9.6 9.6-9.6 23.467t9.6 23.467 22.4 9.6 22.4-9.6l170.667-170.667 387.2 387.2q9.6 9.6 22.933 9.6t22.933-9.6 9.6-22.933-9.6-22.933l-410.667-410.667q-5.333-5.333-10.667-7.467t-11.733-2.133z" />
<glyph unicode="&#xe929;" glyph-name="done-all" d="M313.6 206.933q-6.4 0-11.733 2.133t-10.667 7.467l-193.067 193.067q-9.6 9.6-9.067 24t9.067 22.933q10.667 10.667 22.933 10.133t21.867-10.133l216.533-216.533-23.467-23.467q-5.333-5.333-10.667-7.467t-11.733-2.133zM494.933 206.933q-6.4 0-11.733 2.133t-10.667 7.467l-193.067 193.067q-9.6 9.6-9.6 23.467t9.6 23.467 22.4 9.6 22.4-9.6l170.667-170.667 387.2 387.2q9.6 9.6 22.933 9.6t22.933-9.6 9.6-22.933-9.6-22.933l-410.667-410.667q-5.333-5.333-10.667-7.467t-11.733-2.133zM494.933 375.467l-45.867 45.867 251.733 251.733q9.6 9.6 22.933 9.6t22.933-9.6 9.6-22.933-9.6-22.933l-251.733-251.733z" />
<glyph unicode="&#xe92a;" glyph-name="done-outline" d="M406.4 194.133l483.2 483.2-45.867 45.867-437.333-437.333-225.067 225.067-45.867-45.867 270.933-270.933zM406.4 130.133q-11.733 0-23.467 4.267t-21.333 13.867l-272 272q-9.461 9.555-13.797 21.101t-4.336 23.489 4.336 23.753 13.797 21.258l46.557 46.557q9.977 9.977 21.71 14.243t23.467 4.267 23.467-4.267 21.333-13.867l180.267-180.267 392.533 392.533q9.6 9.6 21.333 13.867t23.467 4.267 23.467-4.267 21.531-13.475l46.539-46.879q9.797-10.046 14.064-21.779t4.267-23.467-4.336-23.427q-4.336-11.695-13.797-21.373l-484.267-484.267q-9.6-9.6-21.333-13.867t-23.467-4.267z" />
<glyph unicode="&#xe92b;" glyph-name="do-not-disturb" d="M330.667 419.2h362.667q13.6 0 22.8 9.253t9.2 22.933-9.2 22.747-22.8 9.067h-362.667q-13.6 0-22.8-9.253-9.2-9.254-9.2-22.933t9.2-22.747 22.8-9.067zM512.284 21.333q-88.25 0-165.867 33.6t-135.75 91.733-91.733 135.83q-33.6 77.696-33.6 166.036t33.6 166.036 91.733 135.297 135.83 91.2q77.696 33.6 166.036 33.6t166.036-33.6 135.297-91.2 91.2-135.467 33.6-166.116-33.6-165.867-91.2-135.554-135.467-91.733-166.116-33.796zM512.533 85.333q150.933 0 256.533 106.133t105.6 257.067-105.399 256.533q-105.401 105.6-257.267 105.6-150.4 0-256.533-105.399-106.133-105.401-106.133-257.267 0-150.4 106.133-256.533t257.067-106.133z" />
<glyph unicode="&#xe92c;" glyph-name="do-not-disturb-off" d="M867.2 1.067l-101.333 101.333q-53.333-38.4-117.333-59.733t-136.533-21.333q-90.667 0-168.533 32.533t-135.467 90.133-90.133 135.467-32.533 168.533q0 72.533 21.333 136.533t59.733 117.333l-101.333 101.333 45.867 45.867 802.133-802.133-45.867-45.867zM857.6 194.133l-45.867 45.867q29.867 44.8 46.4 97.067t16.533 110.933q0 154.667-104 258.667t-258.667 104q-58.667 0-110.933-16.533t-97.067-46.4l-45.867 45.867q53.333 38.4 117.333 59.733t136.533 21.333q89.6 0 167.467-33.067t135.467-90.667 90.667-135.467 33.067-167.467q0-72.533-21.333-136.533t-59.733-117.333zM632.533 419.2l-64 64h125.867q12.8 0 21.867-9.6t9.067-22.4q0-13.867-9.067-22.933t-22.933-9.067h-60.8zM720 148.267l-264.533 270.933h-125.867q-12.8 0-21.867 9.6t-9.067 22.4q0 13.867 9.067 22.933t22.933 9.067h60.8l-179.2 172.8q-29.867-44.8-46.4-97.067t-16.533-110.933q0-154.667 104-258.667t258.667-104q58.667 0 110.933 16.533t97.067 46.4z" />
<glyph unicode="&#xe92d;" glyph-name="download" d="M511.858 282.667q-6.258 0-11.591 2.133t-10.667 7.467l-161.067 161.067q-9.6 9.6-9.067 22.933t10.133 22.933 22.933 9.6 22.933-9.6l104.533-105.6v363.733q0 13.6 9.253 22.8 9.254 9.2 22.933 9.2t22.747-9.2 9.067-22.8v-363.733l105.6 105.6q9.6 9.6 22.933 9.6t22.933-9.6 9.6-22.933-9.6-22.933l-161.067-161.067q-5.333-5.333-10.809-7.467t-11.733-2.133zM234.667 106.667q-25.6 0-44.8 19.2t-19.2 44.8v120.533q0 13.6 9.253 22.8 9.254 9.2 22.933 9.2 13.68 0 22.747-9.2t9.067-22.8v-120.533h554.667v120.533q0 13.6 9.253 22.8t22.933 9.2 22.747-9.2 9.067-22.8v-120.533q0-25.6-19.2-44.8t-44.8-19.2h-554.667z" />
<glyph unicode="&#xe92e;" glyph-name="download-done" d="M245.333 106.667q-13.867 0-22.933 9.067t-9.067 22.933 9.067 22.933 22.933 9.067h533.333q13.867 0 22.933-9.067t9.067-22.933-9.067-22.933-22.933-9.067h-533.333zM405.333 301.867q-6.4 0-11.733 2.133t-10.667 7.467l-196.267 196.267q-9.6 9.6-9.067 22.4t10.133 22.4 22.4 9.6 22.4-9.6l172.8-172.8 387.2 387.2q9.6 9.6 22.4 9.6t22.4-9.6 9.6-22.933-9.6-22.933l-409.6-409.6q-5.333-5.333-10.667-7.467t-11.733-2.133z" />
<glyph unicode="&#xe92f;" glyph-name="downloading" d="M594.133 27.733q-14.933-2.133-25.067 7.467t-10.133 24.533q0 11.733 7.467 20.8t19.2 11.2q34.133 7.467 66.667 20.8t61.333 32.533q10.667 6.4 22.933 5.867t20.8-9.067q11.733-11.733 10.667-25.6t-13.867-22.4q-36.267-24.533-76.8-41.067t-83.2-25.067zM818.133 206.933q-8.533 8.533-9.067 20.267t5.867 21.333q19.2 29.867 32.533 62.4t20.8 66.667q2.133 11.733 11.733 19.733t21.333 8q14.933 0 24.533-10.667t6.4-25.6q-8.533-42.667-25.067-82.133t-41.067-75.733q-8.533-11.733-22.4-13.867t-25.6 9.6zM900.267 492.8q-11.733 0-20.8 8t-11.2 19.733q-7.467 34.133-20.267 66.667t-32 61.333q-6.4 10.667-4.8 22.4t10.133 20.267q11.733 10.667 26.133 8.533t22.933-14.933q23.467-36.267 38.4-75.2t23.467-80.533q2.133-14.933-6.933-25.6t-25.067-10.667zM429.867 28.8q-149.333 27.733-246.4 146.133t-97.067 274.133 97.6 274.133 246.933 146.133q14.933 2.133 25.067-6.933t10.133-24q0-11.733-7.467-21.333t-19.2-11.733q-125.867-27.733-207.467-127.467t-81.6-228.8 81.067-228.8 206.933-127.467q11.733-2.133 19.2-11.733t7.467-21.333q0-14.933-10.133-24t-25.067-6.933zM714.667 750.933q-29.867 19.2-62.4 32.533t-66.667 21.867q-11.733 2.133-19.2 11.733t-7.467 21.333q0 14.933 10.133 24.533t25.067 6.4q42.667-8.533 82.667-25.067t77.333-41.067q12.8-8.533 13.867-22.4t-10.667-25.6q-8.533-8.533-20.8-9.6t-21.867 5.333zM512 247.467q-6.4 0-11.733 2.133t-10.667 7.467l-168.533 168.533q-8.533 8.533-8.533 22.4t9.6 23.467q8.533 8.533 22.4 8.533t23.467-8.533l112-113.067v270.933q0 13.867 9.067 22.933t22.933 9.067 22.933-9.067 9.067-22.933v-270.933l113.067 113.067q8.533 8.533 22.4 8.533t23.467-8.533q8.533-9.6 8.533-23.467t-8.533-22.4l-168.533-168.533q-5.333-5.333-10.667-7.467t-11.733-2.133z" />
<glyph unicode="&#xe930;" glyph-name="download-off" d="M844.8 24.533l-83.2 82.133h-526.933q-25.6 0-44.8 19.2t-19.2 44.8v120.533q0 13.6 9.253 22.8 9.254 9.2 22.933 9.2 13.68 0 22.747-9.2t9.067-22.8v-120.533h462.933l-141.867 141.867-21.333-20.267q-5.333-5.333-10.133-7.467t-12.267-2.133q-7.421 0-12.243 2.133t-10.407 7.717l-160.816 160.816q-9.6 9.6-8.533 23.467t9.6 22.4q7.467 7.467 15.467 8.533t17.6-1.067l-274.133 274.133q-9.6 9.6-9.6 22.961t9.657 22.794q8.85 8.645 22.53 8.645t23.28-8.533l756.267-757.333q8.533-8.865 8.533-22.566t-8.851-22.372q-9.657-9.461-23.335-9.461-13.68 0-22.213 9.6zM853.333 198.4l-64 64v28.8q0 13.867 9.231 22.933t22.769 9.067q13.6 0 22.8-9.2t9.2-22.8v-92.8zM646.4 404.267l-45.867 46.933 49.067 49.067q9.6 9.6 22.933 9.6t22.933-9.6 9.6-23.703-9.6-23.23l-49.067-49.067zM544 507.733l-64 64v185.6q0 13.6 9.253 22.8 9.254 9.2 22.933 9.2t22.747-9.2 9.067-22.8v-249.6z" />
<glyph unicode="&#xe931;" glyph-name="draft" d="M632.533 504.533l-64 64-235.733-235.733q-5.333-5.333-7.467-10.667t-2.133-11.733v-35.2q0-6.4 4.8-11.2t11.2-4.8h35.2q6.4 0 11.733 2.133t10.667 7.467l235.733 235.733zM653.867 525.867l42.667 42.667q8.533 8.533 9.067 20.8t-8 20.8l-22.4 22.4q-8.533 8.533-20.8 9.067t-20.8-8l-43.733-43.733 64-64zM512 21.333q-87.467 0-165.333 33.6t-136 91.733-91.733 136-33.6 165.333q0 88.533 33.6 166.4t91.733 135.467 136 91.2 165.333 33.6q88.533 0 166.4-33.6t135.467-91.2 91.2-135.467 33.6-166.4q0-87.467-33.6-165.333t-91.2-136-135.467-91.733-166.4-33.6zM512 85.333q151.467 0 257.067 106.133t105.6 256.533q0 151.467-105.6 257.067t-257.067 105.6q-150.4 0-256.533-105.6t-106.133-257.067q0-150.4 106.133-256.533t256.533-106.133z" />
<glyph unicode="&#xe932;" glyph-name="drop-down" d="M489.6 342.4l-135.467 135.467q-14.933 14.933-6.933 34.667t29.333 19.733h270.933q21.333 0 29.333-19.733t-6.933-34.667l-135.467-135.467q-5.333-5.333-10.667-7.467t-11.733-2.133-11.733 2.133-10.667 7.467z" />
<glyph unicode="&#xe933;" glyph-name="drop-up" d="M376.533 362.667q-21.333 0-29.333 19.733t6.933 34.667l136.533 137.6q5.333 5.333 10.667 6.933t11.733 1.6 11.733-1.6 10.667-6.933l136.533-137.6q14.933-14.933 6.933-34.667t-29.333-19.733h-273.067z" />
<glyph unicode="&#xe934;" glyph-name="edit" d="M192 128h46.933l472.533 472.533-46.933 46.933-472.533-472.533v-46.933zM846.933 646.4l-136.533 136.533 44.611 44.611q18.322 18.322 45.522 17.789t45.333-18.667l45.867-45.867q18.133-18.133 18.133-44.8t-18.094-44.761l-44.839-44.839zM160.349 64q-13.748 0-23.049 9.295-9.3 9.296-9.3 23.037v91.335q0 6.466 2.133 11.799t7.467 10.667l528 528 136.533-136.533-528-528q-5.333-5.333-10.898-7.467t-11.502-2.133h-91.385zM688 624v0z" />
<glyph unicode="&#xe935;" glyph-name="edit-off" d="M849.067 17.067l-315.733 315.733-259.2-259.2q-5.333-5.333-10.667-7.467t-11.733-2.133h-91.733q-13.867 0-22.933 9.067t-9.067 22.933v91.733q0 6.4 2.133 11.733t7.467 10.667l259.2 259.2-315.733 315.733q-9.6 9.6-9.6 22.4t9.6 22.4 22.4 9.6 22.4-9.6l768-768q9.6-9.6 9.6-22.4t-9.6-22.4-22.4-9.6-22.4 9.6zM465.067 401.067v0zM622.933 422.4l-44.8 44.8 133.333 133.333-46.933 46.933-133.333-133.333-44.8 44.8 179.2 179.2 136.533-136.533-179.2-179.2zM846.933 646.4l-136.533 136.533 44.8 44.8q18.133 18.133 45.333 17.6t45.333-18.667l45.867-45.867q18.133-18.133 18.667-44.267t-18.667-45.333l-44.8-44.8zM192 128h46.933l249.6 249.6-46.933 46.933-249.6-249.6v-46.933z" />
<glyph unicode="&#xe936;" glyph-name="edit-square" d="M192-51.2q-25.6 0-44.8 19.2t-19.2 44.8v640q0 25.6 19.2 44.8t44.8 19.2h432l-64-64h-368v-640h640v371.2l64 64v-435.2q0-25.6-19.2-44.8t-44.8-19.2h-640zM706.133 708.267l45.867-44.8-304-302.933v-91.733h90.667l305.067 305.067 44.8-44.8-304-305.067q-8.533-8.533-20.8-13.867t-25.067-5.333h-122.667q-13.867 0-22.933 9.067t-9.067 22.933v122.667q0 12.8 5.333 25.067t13.867 20.8l302.933 302.933zM888.533 529.067l-182.4 179.2 106.667 106.667q18.133 18.133 45.333 18.133t45.333-19.2l89.6-90.667q18.133-19.2 18.133-45.333t-19.2-44.267l-103.467-104.533z" />
<glyph unicode="&#xe937;" glyph-name="emergency" d="M486.4 81.067q-13.867 0-22.933 9.067t-9.067 22.933v235.733l-203.733-118.4q-11.733-6.4-24.533-3.2t-19.2 14.933l-25.6 43.733q-7.467 11.733-3.733 24.533t15.467 19.2l201.6 118.4-201.6 116.267q-11.733 6.4-15.467 19.2t3.733 24.533l25.6 43.733q6.4 11.733 19.2 14.933t24.533-3.2l203.733-116.267v235.733q0 13.867 9.067 22.933t22.933 9.067h51.2q13.867 0 22.933-9.067t9.067-22.933v-235.733l203.733 116.267q11.733 6.4 24.533 3.2t19.2-14.933l25.6-43.733q7.467-11.733 3.733-24.533t-15.467-19.2l-201.6-116.267 201.6-118.4q11.733-6.4 15.467-19.2t-3.733-24.533l-25.6-43.733q-6.4-11.733-19.2-14.933t-24.533 3.2l-203.733 118.4v-235.733q0-13.867-9.067-22.933t-22.933-9.067h-51.2z" />
<glyph unicode="&#xe938;" glyph-name="error" d="M511.981 234.667q14.953 0 25.086 10.114t10.133 25.067-10.114 25.086-25.067 10.133-25.086-10.114-10.133-25.067 10.114-25.086q10.115-10.133 25.067-10.133zM515.387 397.867q13.68 0 22.747 9.2t9.067 22.8v205.867q0 13.6-9.253 22.8t-22.933 9.2-22.747-9.2-9.067-22.8v-205.867q0-13.6 9.253-22.8 9.254-9.2 22.933-9.2zM512.284 21.333q-88.25 0-165.867 33.6t-135.75 91.733-91.733 135.83q-33.6 77.696-33.6 166.036t33.6 166.036 91.733 135.297 135.83 91.2q77.696 33.6 166.036 33.6t166.036-33.6 135.297-91.2 91.2-135.467 33.6-166.116-33.6-165.867-91.2-135.554-135.467-91.733-166.116-33.796zM512.533 85.333q150.933 0 256.533 106.133t105.6 257.067-105.399 256.533q-105.401 105.6-257.267 105.6-150.4 0-256.533-105.399-106.133-105.401-106.133-257.267 0-150.4 106.133-256.533t257.067-106.133z" />
<glyph unicode="&#xe939;" glyph-name="expand" d="M512 316.8q-6.4 0-11.733 2.133t-10.667 7.467l-211.2 211.2q-8.533 8.533-8 22.933t9.067 22.933q10.667 10.667 22.933 9.067t21.867-10.133l187.733-187.733 187.733 187.733q8.533 8.533 22.933 9.6t22.933-9.6q10.667-8.533 9.067-22.4t-10.133-23.467l-210.133-210.133q-5.333-5.333-10.667-7.467t-11.733-2.133z" />
<glyph unicode="&#xe93a;" glyph-name="expand-content" d="M213.333 149.333v256h64v-192h192v-64h-256zM746.667 490.667v192h-192v64h256v-256h-64z" />
<glyph unicode="&#xe93b;" glyph-name="eye" d="M512.126 288q75.607 0 128.407 52.926 52.8 52.925 52.8 128.533 0 75.607-52.926 128.407-52.925 52.8-128.533 52.8-75.607 0-128.407-52.926t-52.8-128.533 52.926-128.407 128.533-52.8zM511.749 349.867q-49.883 0-84.549 34.917-34.667 34.918-34.667 84.8t34.917 84.549 84.8 34.667 84.549-34.917 34.667-84.8-34.917-84.549-84.8-34.667zM512 149.333q-147.2 0-268.267 80t-187.045 211.282q-3.355 5.251-4.955 12.903t-1.6 15.814 1.6 15.814 4.955 12.903q65.979 131.282 187.045 211.282t268.267 80 268.267-80 187.045-211.282q3.355-5.251 4.955-12.903t1.6-15.814-1.6-15.814-4.955-12.903q-65.979-131.282-187.045-211.282t-268.267-80zM511.82 213.333q129.247 0 237.514 69.867t164.8 186.133q-56.533 116.267-164.62 186.133t-237.333 69.867q-129.247 0-237.514-69.867t-165.867-186.133q57.6-116.267 165.686-186.133t237.333-69.867z" />
<glyph unicode="&#xe93c;" glyph-name="eye-off" d="M670.933 382.933l-46.933 46.933q27.733 75.733-28.8 125.867t-122.667 25.6l-46.933 46.933q18.133 11.733 40.533 17.067t45.867 5.333q75.733 0 128.533-52.8t52.8-128.533q0-23.467-5.867-46.4t-16.533-40zM808.533 245.333l-42.667 42.667q52.267 38.4 91.2 85.867t57.067 95.467q-53.333 118.4-160 187.2t-231.467 68.8q-44.8 0-91.733-8.533t-73.6-20.267l-49.067 50.133q37.333 17.067 95.467 29.867t113.6 12.8q144 0 265.6-78.933t185.6-212.267q3.2-5.333 4.267-12.8t1.067-16-1.067-16.533-4.267-13.333q-27.733-58.667-68.267-107.733t-91.733-86.4zM846.933 27.733l-155.733 152.533q-37.333-14.933-84.267-22.933t-94.933-8q-147.2 0-269.867 78.933t-186.667 212.267q-3.2 6.4-4.267 13.333t-1.067 15.467 1.6 16.533 3.733 13.333q22.4 48 57.067 93.333t81.6 85.867l-112 112q-9.6 9.6-9.6 22.4t9.6 22.4 22.933 9.6 22.933-9.6l763.733-763.733q8.533-8.533 8.533-20.8t-8.533-21.867q-8.533-10.667-21.867-10.667t-22.933 9.6zM237.867 633.6q-39.467-28.8-76.267-75.733t-52.8-88.533q54.4-118.4 163.733-187.2t248-68.8q35.2 0 69.333 4.267t51.2 12.8l-68.267 68.267q-11.733-5.333-28.8-8t-32-2.667q-74.667 0-128 52.267t-53.333 129.067q0 16 2.667 32t8 28.8l-103.467 103.467z" />
<glyph unicode="&#xe93d;" glyph-name="female" d="M480 322.133q-87.467 11.733-145.067 78.62t-57.6 154.98q0 97.511 68.8 165.556 68.8 68.044 165.867 68.044t165.867-68.044 68.8-165.556q0-88.094-57.6-154.98t-145.067-78.62v-108.8h53.333q13.6 0 22.8-9.253t9.2-22.933-9.2-22.747-22.8-9.067h-53.333v-53.333q0-13.6-9.253-22.8t-22.933-9.2-22.747 9.2-9.067 22.8v53.333h-53.333q-13.6 0-22.8 9.253t-9.2 22.933 9.2 22.747 22.8 9.067h53.333v108.8zM511.785 384q70.615 0 120.749 49.918t50.133 120.533-49.918 120.749-120.533 50.133-120.749-49.918-50.133-120.533 49.918-120.749 120.533-50.133z" />
<glyph unicode="&#xe93e;" glyph-name="file-edit" d="M234.667 21.333q-25.6 0-44.8 19.2t-19.2 44.8v725.333q0 25.6 19.2 44.8t44.8 19.2h336q13.274 0 25.303-5.333t20.563-13.867l217.6-217.6q8.533-8.533 13.867-20.563t5.333-25.303v-139.733h-64v123.733h-202.667q-13.6 0-22.8 9.2t-9.2 22.8v202.667h-320v-725.333h320v-64h-320zM234.667 85.333v0zM806.4 323.2l29.867-29.867-174.933-174.933v-54.4h54.4l174.933 174.933 29.867-29.867-178.133-178.133q-5.333-5.333-10.898-7.467t-11.502-2.133h-85.333q-6.4 0-11.2 4.8t-4.8 11.2v85.333q0 5.936 2.133 11.502t7.467 10.898l178.133 178.133zM920.533 209.067l-114.133 114.133 65.067 65.067q9.6 9.6 22.4 9.6t22.4-9.6l69.333-69.333q9.6-9.6 9.6-22.4t-9.6-22.4l-65.067-65.067z" />
<glyph unicode="&#xe93f;" glyph-name="filter" d="M469.333 106.667q-18.133 0-30.4 12.267t-12.267 30.4v256l-254.933 325.333q-14.933 18.133-4.267 38.4t33.067 20.267h622.933q22.4 0 33.067-20.267t-4.267-38.4l-254.933-325.333v-256q0-18.133-12.267-30.4t-30.4-12.267h-85.333zM512 401.067l256 324.267h-512l256-324.267z" />
<glyph unicode="&#xe940;" glyph-name="filter-off" d="M844.8 24.533l-247.467 247.467v-80q0-35.2-25.067-60.267t-60.267-25.067-60.267 25.067-25.067 60.267v249.6l-339.2 339.2q-9.6 9.6-9.6 22.933t9.6 22.933 22.933 9.6 22.933-9.6l757.333-757.333q9.6-9.6 9.6-22.4t-9.6-22.4-22.933-9.6-22.933 9.6zM618.667 432l-45.867 45.867 195.2 247.467h-442.667l-64 64h562.133q22.4 0 33.067-20.267t-4.267-38.4l-233.6-298.667z" />
<glyph unicode="&#xe941;" glyph-name="first" d="M709.333 218.667l-203.733 203.733q-5.333 5.333-7.467 10.667t-2.133 11.733 2.133 11.733 7.467 10.667l204.8 204.8q9.6 9.6 22.933 9.6t22.933-9.6 9.6-22.933-9.6-22.933l-181.333-181.333 181.333-181.333q9.6-9.6 9.6-22.4t-9.6-22.4-23.467-9.6-23.467 9.6zM288 192q-13.867 0-22.933 9.067t-9.067 22.933v448q0 13.867 9.067 22.933t22.933 9.067 22.933-9.067 9.067-22.933v-448q0-13.867-9.067-22.933t-22.933-9.067z" />
<glyph unicode="&#xe942;" glyph-name="flip" d="M513.067 340.267q-44.8 0-76.8 32t-32 76.8 32 76.8 76.8 32 76.8-32 32-76.8-32-76.8-76.8-32zM117.333 546.133q-13.867 0-22.933 9.067t-9.067 22.933v179.2q0 13.867 9.067 22.933t22.933 9.067 22.933-9.067 9.067-22.933v-82.133q60.8 93.867 156.267 146.667t206.4 52.8q139.733 0 251.2-80.533t153.067-211.733q5.333-14.933-3.733-25.6t-25.067-10.667q-11.733 0-21.333 6.933t-13.867 18.667q-37.333 107.733-130.667 173.867t-209.6 66.133q-103.467 0-190.933-54.4t-136.533-146.133h107.733q12.8 0 22.4-9.6t9.6-22.4q0-13.867-9.6-23.467t-22.4-9.6h-174.933zM512 21.333q-139.733 0-250.667 81.067t-152.533 212.267q-5.333 14.933 3.733 25.6t25.067 10.667q11.733 0 21.333-6.933t13.867-18.667q37.333-107.733 130.667-173.867t208.533-66.133q104.533 0 192.533 53.867t136 146.667h-107.733q-12.8 0-22.4 9.6t-9.6 23.467q0 12.8 9.6 22.4t23.467 9.6h172.8q13.867 0 22.933-9.067t9.067-22.933v-181.333q0-12.8-9.067-21.867t-21.867-9.067q-13.867 0-22.933 9.067t-9.067 22.933v84.267q-60.8-93.867-156.8-147.733t-206.933-53.867z" />
<glyph unicode="&#xe943;" glyph-name="folder" d="M150.4 106.667q-25.6 0-44.8 19.733t-19.2 44.267v554.667q0 24.533 19.2 44.267t44.8 19.733h272q13.274 0 25.303-5.333t20.657-13.961l44.706-44.706h362.667q24.533 0 44.267-19.733t19.733-44.267v-490.667q0-24.533-19.733-44.267t-44.267-19.733h-725.333zM150.4 725.333v-554.667h725.333v490.667h-389.333l-64 64h-272zM150.4 725.333v0z" />
<glyph unicode="&#xe944;" glyph-name="folder-add" d="M640.187 277.333q13.68 0 22.747 9.2t9.067 22.8v64h64q13.6 0 22.8 9.253t9.2 22.933-9.2 22.747-22.8 9.067h-64v64q0 13.6-9.253 22.8t-22.933 9.2-22.747-9.2-9.067-22.8v-64h-64q-13.6 0-22.8-9.253t-9.2-22.933 9.2-22.747 22.8-9.067h64v-64q0-13.6 9.253-22.8t22.933-9.2zM150.4 106.667q-25.6 0-44.8 19.733t-19.2 44.267v554.667q0 24.533 19.2 44.267t44.8 19.733h272q13.274 0 25.303-5.333t20.657-13.961l44.706-44.706h362.667q24.533 0 44.267-19.733t19.733-44.267v-490.667q0-24.533-19.733-44.267t-44.267-19.733h-725.333zM150.4 725.333v-554.667h725.333v490.667h-389.333l-64 64h-272zM150.4 725.333v0z" />
<glyph unicode="&#xe945;" glyph-name="folder-off" d="M929.067 136.533l-53.333 53.333v471.467h-389.333l-64 64h-82.133l-64 64h172.8l64-64h362.667q25.6 0 44.8-19.2t19.2-44.8v-490.667q0-7.467-2.133-16.533t-8.533-17.6zM897.067-11.733l-118.4 118.4h-628.267q-25.6 0-44.8 19.2t-19.2 44.8v554.667q0 25.6 19.2 44.8t44.8 19.2h35.2l64-64h-99.2v-554.667h563.2l-631.467 632.533q-9.6 9.6-9.6 22.4t9.6 22.4 22.4 9.6 22.4-9.6l814.933-814.933q9.6-9.6 9.6-22.4t-9.6-22.816q-9.6-9.184-22.4-9.184t-22.4 9.6z" />
<glyph unicode="&#xe946;" glyph-name="folder-open" d="M149.333 106.667q-24.533 0-44.267 19.733t-19.733 44.267v554.667q0 24.533 19.733 44.267t44.267 19.733h273.067q13.274 0 25.303-5.333t20.657-13.961l44.706-44.706h361.6q24.533 0 44.267-19.733t19.733-44.267h-453.333l-64 64h-272v-554.667l96 378.667q5.333 21.333 23.281 34.667t39.652 13.333h611.2q30.933 0 51.2-24.533t11.733-55.467l-93.867-361.6q-6.4-25.6-23.467-37.333t-43.733-11.733h-672zM216.533 170.667h610.133l89.6 362.667h-610.133l-89.6-362.667zM216.533 170.667v0zM149.333 597.333v0z" />
<glyph unicode="&#xe947;" glyph-name="folder-shared" d="M638.848 420.267q32.085 0 55.019 22.848 22.933 22.849 22.933 54.933t-22.848 55.019q-22.849 22.933-54.933 22.933-32.085 0-55.019-22.848-22.933-22.849-22.933-54.933t22.848-55.019q22.849-22.933 54.933-22.933zM468.267 234.667h341.333v20.267q0 44.8-45.333 69.333t-125.333 24.533-125.333-24.533-45.333-69.333v-20.267zM150.4 106.667q-25.6 0-44.8 19.733t-19.2 44.267v554.667q0 24.533 19.2 44.267t44.8 19.733h272q13.274 0 25.303-5.333t20.657-13.961l44.706-44.706h362.667q24.533 0 44.267-19.733t19.733-44.267v-490.667q0-24.533-19.733-44.267t-44.267-19.733h-725.333zM150.4 725.333v-554.667h725.333v490.667h-389.333l-64 64h-272zM150.4 725.333v0z" />
<glyph unicode="&#xe948;" glyph-name="folder-special" d="M635.733 322.133l41.6-28.8q12.8-8.533 25.6 0t7.467 23.467l-17.067 53.333 48 40.533q11.733 9.6 6.4 23.467t-20.267 13.867h-54.4l-17.067 51.2q-5.333 14.933-20.267 15.467t-20.267-14.4l-18.133-52.267h-54.4q-14.933 0-20.267-13.867t6.4-23.467l48-40.533-17.067-54.4q-5.333-14.933 7.467-23.467t25.6 0l42.667 29.867zM150.4 106.667q-25.6 0-44.8 19.733t-19.2 44.267v554.667q0 24.533 19.2 44.267t44.8 19.733h272q13.274 0 25.303-5.333t20.657-13.961l44.706-44.706h362.667q24.533 0 44.267-19.733t19.733-44.267v-490.667q0-24.533-19.733-44.267t-44.267-19.733h-725.333zM150.4 725.333v-554.667h725.333v490.667h-389.333l-64 64h-272zM150.4 725.333v0z" />
<glyph unicode="&#xe949;" glyph-name="folder-topic" d="M298.667 458.667h426.667q13.6 0 22.8 9.253 9.2 9.254 9.2 22.933 0 13.68-9.2 22.747t-22.8 9.067h-426.667q-13.6 0-22.8-9.253-9.2-9.254-9.2-22.933 0-13.68 9.2-22.747t22.8-9.067zM298.667 288h256q13.6 0 22.8 9.253t9.2 22.933-9.2 22.747-22.8 9.067h-256q-13.6 0-22.8-9.253t-9.2-22.933 9.2-22.747 22.8-9.067zM150.4 106.667q-25.6 0-44.8 19.733t-19.2 44.267v554.667q0 24.533 19.2 44.267t44.8 19.733h272q13.274 0 25.303-5.333t20.657-13.961l44.706-44.706h362.667q24.533 0 44.267-19.733t19.733-44.267v-490.667q0-24.533-19.733-44.267t-44.267-19.733h-725.333zM150.4 725.333v-554.667h725.333v490.667h-389.333l-64 64h-272zM150.4 725.333v0z" />
<glyph unicode="&#xe94a;" glyph-name="folder-zip" d="M149.333 106.667q-24.533 0-44.267 19.733t-19.733 44.267v554.667q0 24.533 19.733 44.267t44.267 19.733h272q13.274 0 25.303-5.333t20.657-13.961l44.706-44.706h362.667q24.533 0 44.267-19.733t19.733-44.267v-490.667q0-24.533-19.733-44.267t-44.267-19.733h-725.333zM682.667 170.667h192v490.667h-192v-98.133h98.133v-98.133h-98.133v-98.133h98.133v-98.133h-98.133v-98.133zM149.333 170.667h435.2v98.133h98.133v98.133h-98.133v98.133h98.133v98.133h-98.133v98.133h-99.2l-64 64h-272v-554.667zM149.333 661.333v0z" />
<glyph unicode="&#xe94b;" glyph-name="gif" d="M352 362.667h65.067q13.147 0 22.041 9.6 8.893 9.6 8.893 22.4v26.667q0 6.4-4.8 11.2t-11.2 4.8-11.2-4.8-4.8-11.2v-26.667h-64v106.667h77.867q6.4 0 11.2 4.8t4.8 11.2-4.8 11.2-11.2 4.8h-77.867q-13.6 0-22.8-9.2t-9.2-22.8v-106.667q0-13.6 9.2-22.8t22.8-9.2zM512 362.667q6.4 0 11.2 4.8t4.8 11.2v138.667q0 6.4-4.8 11.2t-11.2 4.8-11.2-4.8-4.8-11.2v-138.667q0-6.4 4.8-11.2t11.2-4.8zM592 362.667q6.4 0 11.2 4.8t4.8 11.2v48h58.667q6.4 0 11.2 4.8t4.8 11.2-4.8 11.2-11.2 4.8h-58.667v42.667h80q6.4 0 11.2 4.8t4.8 11.2-4.8 11.2-11.2 4.8h-96q-6.4 0-11.2-4.8t-4.8-11.2v-138.667q0-6.4 4.8-11.2t11.2-4.8zM192 64q-25.6 0-44.8 19.2t-19.2 44.8v640q0 24.533 19.2 44.267t44.8 19.733h640q24.533 0 44.267-19.733t19.733-44.267v-640q0-25.6-19.733-44.8t-44.267-19.2h-640zM192 128h640v640h-640v-640zM192 768v0z" />
<glyph unicode="&#xe94c;" glyph-name="group" d="M72.533 106.667q-13.867 0-22.933 9.067t-9.067 22.933v68.267q0 37.333 19.2 67.733t53.333 45.333q77.867 34.133 140.267 49.067t128.533 14.933 128-14.933 139.733-49.067q34.133-14.933 53.867-45.333t19.733-67.733v-68.267q0-13.867-9.067-22.933t-22.933-9.067h-618.667zM763.733 106.667q10.667 2.133 17.067 11.2t6.4 22.933v66.133q0 67.2-34.133 110.4t-89.6 69.867q73.6-8.533 138.667-25.067t105.6-37.867q35.2-20.267 55.467-50.133t20.267-67.2v-68.267q0-13.867-9.067-22.933t-22.933-9.067h-187.733zM381.867 449.067q-70.4 0-115.2 44.8t-44.8 115.2 44.8 115.2 115.2 44.8 115.2-44.8 44.8-115.2-44.8-115.2-115.2-44.8zM765.867 609.067q0-70.4-44.8-115.2t-115.2-44.8q-11.733 0-26.133 1.6t-26.133 5.867q25.6 26.667 38.933 65.6t13.333 86.933-13.333 84.8-38.933 67.733q11.733 3.2 26.133 5.333t26.133 2.133q70.4 0 115.2-44.8t44.8-115.2zM104.533 170.667h554.667v36.267q0 17.067-10.133 33.067t-25.067 22.4q-76.8 34.133-129.067 45.867t-113.067 11.733-113.6-11.733-129.6-45.867q-14.933-6.4-24.533-22.4t-9.6-33.067v-36.267zM381.867 513.067q41.6 0 68.8 27.2t27.2 68.8-27.2 68.8-68.8 27.2-68.8-27.2-27.2-68.8 27.2-68.8 68.8-27.2z" />
<glyph unicode="&#xe94d;" glyph-name="group-add" d="M505.6 454.4q27.733 34.133 41.067 70.4t13.333 84.267-13.333 84.267-41.067 70.4q81.067 18.133 142.4-24.533t61.333-130.133-61.333-130.133-142.4-24.533zM712.533 106.667q10.667 2.133 17.067 11.2t6.4 22.933v66.133q0 54.4-27.733 101.333t-96 78.933q184.533-23.467 252.267-68.267t67.733-112v-67.739q0-14.395-9.2-23.461t-22.8-9.067h-187.733zM885.147 414.933q-13.68 0-22.747 9.2t-9.067 22.8v74.667h-74.667q-13.6 0-22.8 9.253t-9.2 22.933 9.2 22.747 22.8 9.067h74.667v74.667q0 13.6 9.253 22.8t22.933 9.2 22.747-9.2 9.067-22.8v-74.667h74.667q13.6 0 22.8-9.253t9.2-22.933-9.2-22.747-22.8-9.067h-74.667v-74.667q0-13.6-9.253-22.8t-22.933-9.2zM336 449.067q-70.4 0-115.2 44.8t-44.8 115.2 44.8 115.2 115.2 44.8 115.2-44.8 44.8-115.2-44.8-115.2-115.2-44.8zM32 106.667q-13.6 0-22.8 9.2t-9.2 22.8v68.267q0 37.333 19.733 67.733t52.8 45.333q76.8 34.133 137.067 49.067t126.4 14.933 125.867-14.933 136.533-49.067q33.067-14.933 53.333-45.333t20.267-67.733v-68.267q0-13.6-9.2-22.8t-22.8-9.2h-608zM336 513.067q41.6 0 68.8 27.2t27.2 68.8-27.2 68.8-68.8 27.2-68.8-27.2-27.2-68.8 27.2-68.8 68.8-27.2zM64 170.667h544v36.267q0 17.067-8.533 32t-26.667 23.467q-73.6 34.133-124.8 45.867t-112 11.733-111.467-11.733-126.4-45.867q-16-7.467-25.067-22.933t-9.067-32.533v-36.267z" />
<glyph unicode="&#xe94e;" glyph-name="heart" d="M468.267 102.4l-56.533 52.267q-132.267 122.667-229.333 234.133t-97.067 233.067q0 96 64.533 160.533t159.467 64.533q54.4 0 107.733-26.133t94.933-85.867q46.933 59.733 97.067 85.867t105.6 26.133q94.933 0 159.467-64.533t64.533-160.533q0-121.6-97.067-233.067t-229.333-234.133l-56.533-52.267q-18.133-17.067-43.733-17.067t-43.733 17.067zM484.267 664.533q-28.8 52.267-75.733 85.333t-99.2 33.067q-70.4 0-115.2-45.333t-44.8-115.733q0-61.867 41.6-129.6t99.2-131.733 119.467-118.933 102.4-92.267q40.533 36.267 102.4 91.733t119.467 120 99.2 132.267 41.6 128.533q0 70.4-45.333 115.733t-114.667 45.333q-53.333 0-99.733-32.533t-77.333-85.867q-5.333-8.533-11.733-12.267t-14.933-3.733-15.467 3.733-11.2 12.267z" />
<glyph unicode="&#xe94f;" glyph-name="heart-add" d="M469.333 65.067l-105.6 97.067q-92.8 85.333-154.133 146.133t-98.667 109.867-52.8 92.267-15.467 92.267q0 96 64.533 162.667t159.467 66.667q60.8 0 112.533-28.267t90.133-82.667q44.8 57.6 94.933 84.267t107.733 26.667q85.948 0 144.307-58.667t71.159-141.867h-62.933q-9.6 58.667-49.6 97.6t-102.933 38.933q-54.4 0-101.333-33.067t-75.733-93.867h-52.267q-27.733 59.733-74.667 93.333t-101.333 33.6q-70.4 0-115.2-47.467t-44.8-117.867q0-41.6 16.533-81.067t57.481-89.671q40.947-50.206 111.467-117.333 70.519-67.129 177.186-165.262 34.133 30.933 64.533 57.6t60.267 52.267l44.8-43.733q-28.8-25.6-59.733-52.267t-66.133-58.667l-43.733-39.467zM778.667 234.667v138.667h-138.667v64h138.667v138.667h64v-138.667h138.667v-64h-138.667v-138.667h-64z" />
<glyph unicode="&#xe950;" glyph-name="heart-o" d="M468.267 102.4l-56.533 52.267q-132.267 122.667-229.333 234.133t-97.067 233.067q0 96 64.533 160.533t159.467 64.533q54.4 0 107.733-26.133t94.933-85.867q46.933 59.733 97.067 85.867t105.6 26.133q94.933 0 159.467-64.533t64.533-160.533q0-121.6-97.067-233.067t-229.333-234.133l-56.533-52.267q-18.133-17.067-43.733-17.067t-43.733 17.067z" />
<glyph unicode="&#xe951;" glyph-name="heart-o-remove" d="M640 373.333v64h341.333v-64h-341.333zM469.333 64l-135.467 121.6q-76.8 69.333-131.733 123.733t-90.667 102.4-52.267 92.8-16.533 93.867q0 100.267 67.2 166.933t167.467 66.667q55.467 0 105.6-22.933t86.4-65.6q36.267 42.667 86.4 65.6t105.6 22.933q90.667 0 152-54.933t76.267-128.533q-19.2 7.467-38.4 11.2t-37.333 3.733q-107.733 0-183.467-75.2t-75.733-182.933q0-55.467 22.4-105.067t62.933-84.8q-20.267-18.133-52.8-46.4t-56-49.6l-61.867-55.467z" />
<glyph unicode="&#xe952;" glyph-name="help" d="M516.297 199.467q17.037 0 28.77 11.763t11.733 28.8-11.763 28.77-28.8 11.733-28.77-11.763-11.733-28.8 11.763-28.77 28.8-11.733zM512.284 21.333q-88.25 0-165.867 33.6t-135.75 91.733-91.733 135.83q-33.6 77.696-33.6 166.036t33.6 166.036 91.733 135.297 135.83 91.2q77.696 33.6 166.036 33.6t166.036-33.6 135.297-91.2 91.2-135.467 33.6-166.116-33.6-165.867-91.2-135.554-135.467-91.733-166.116-33.796zM512.533 85.333q150.933 0 256.533 106.133t105.6 257.067-105.399 256.533q-105.401 105.6-257.267 105.6-150.4 0-256.533-105.399-106.133-105.401-106.133-257.267 0-150.4 106.133-256.533t257.067-106.133zM514.951 640q32.249 0 56.782-19.733t24.533-50.342q0-28.058-16.691-48.782t-37.709-39.009q-24.533-20.267-42.667-45.211-18.133-24.943-18.133-56.123 0-11.733 8.96-18.667t20.907-6.933q12.8 0 21.2 8.533t10.8 21.333q3.2 22.4 17.067 40.533t32.246 32.836q26.42 21.564 43.487 50.364t17.067 62.522q0 53.745-40 89.478t-94.882 35.733q-37.918 0-73.118-16t-57.6-46.933q-7.467-10.667-6.933-22.933t10.1-19.733q12.177-8.533 25.222-5.333 13.046 3.2 21.744 14.933 13.6 19.097 34 29.282t43.618 10.185z" />
<glyph unicode="&#xe953;" glyph-name="history" d="M546.133 462.933l122.667-120.533q9.6-9.6 9.6-22.933t-9.6-22.933-22.4-9.6-22.4 9.6l-132.267 130.133q-5.333 5.333-7.467 11.2t-2.133 12.267v182.4q0 13.867 9.067 22.933t22.933 9.067 22.933-9.067 9.067-22.933v-169.6zM508.8 64q-149.333 0-253.333 96t-124.267 240q-2.133 14.933 5.867 25.6t22.933 11.733q12.8 1.067 22.4-8t11.733-21.867q18.133-119.467 104.533-199.467t210.133-80q135.467 0 229.333 94.933t93.867 230.4q0 132.267-94.933 223.467t-228.267 91.2q-72.533 0-136-33.067t-110.4-87.467h80q13.867 0 22.933-9.067t9.067-22.933-9.067-22.933-22.933-9.067h-158.933q-13.867 0-22.933 9.067t-9.067 22.933v157.867q0 13.867 9.067 22.933t22.933 9.067 22.933-9.067 9.067-22.933v-81.067q55.467 65.067 131.733 102.4t161.6 37.333q80 0 150.4-29.867t123.2-81.6 83.2-121.067 30.4-149.333-30.4-150.4-83.2-122.667-123.2-82.667-150.4-30.4z" />
<glyph unicode="&#xe954;" glyph-name="history-off" d="M544 460.8l131.2-131.2q9.6-9.6 9.6-22.4t-9.6-22.4-22.4-9.6-22.4 9.6l-140.8 140.8q-5.333 5.333-7.467 11.2t-2.133 12.267v169.6q0 13.867 9.067 22.933t22.933 9.067 22.933-9.067 9.067-22.933v-157.867zM124.8 263.467q-16 35.2-25.6 73.6t-12.8 78.933h64q2.133-32 10.667-62.4t20.267-58.133l-56.533-32zM86.4 480q3.2 40.533 13.333 79.467t26.133 74.133l55.467-32q-12.8-27.733-20.8-58.133t-10.133-63.467h-64zM270.933 92.8q-34.133 23.467-63.467 52.267t-51.733 62.933l56.533 32q18.133-27.733 41.067-50.133t49.6-40.533l-32-56.533zM212.267 657.067l-55.467 32q22.4 34.133 51.2 62.933t62.933 51.2l32-56.533q-26.667-18.133-49.6-40.533t-41.067-49.067zM480 22.4q-41.6 3.2-80 13.333t-73.6 26.133l32 55.467q27.733-12.8 58.133-20.8t63.467-10.133v-64zM358.4 778.667l-32 55.467q35.2 16 73.6 26.133t80 13.333v-64q-33.067-2.133-63.467-10.133t-58.133-20.8zM544 22.4v64q33.067 2.133 63.467 10.133t58.133 20.8l32-55.467q-35.2-16-74.133-26.133t-79.467-13.333zM665.6 778.667q-27.733 12.8-58.133 20.8t-63.467 10.133v64q40.533-3.2 79.467-12.8t74.133-26.667l-32-55.467zM753.067 92.8l-32 56.533q26.667 18.133 49.067 40.533t40.533 49.067l56.533-32q-22.4-34.133-51.2-62.933t-62.933-51.2zM810.667 657.067q-18.133 26.667-40.533 49.067t-49.067 40.533l32 56.533q34.133-22.4 62.4-51.2t50.667-62.933l-55.467-32zM873.6 480q-2.133 33.067-10.667 63.467t-21.333 58.133l56.533 32q17.067-35.2 26.667-73.6t12.8-80h-64zM898.133 262.4l-55.467 32q12.8 27.733 20.8 58.133t10.133 63.467h64q-3.2-41.6-13.333-80t-26.133-73.6z" />
<glyph unicode="&#xe955;" glyph-name="home" d="M234.667 128h160v266.667h234.667v-266.667h160v416l-277.333 208-277.333-208v-416zM234.667 64q-26.4 0-45.2 18.8t-18.8 45.2v416q0 15.2 6.8 28.8t18.8 22.4l277.333 208q8.848 6.4 18.5 9.6t20.11 3.2q10.457 0 19.965-3.2t18.225-9.6l277.333-208q12-8.8 18.8-22.4t6.8-28.8v-416q0-26.4-18.8-45.2t-45.2-18.8h-224v266.667h-106.667v-266.667h-224z" />
<glyph unicode="&#xe956;" glyph-name="image" d="M283.733 231.467h457.6q10.667 0 14.933 8.533t-2.133 17.067l-124.8 166.4q-5.333 6.4-12.8 6.4t-12.8-6.4l-128-165.333-86.4 118.4q-5.333 6.4-12.8 6.4t-12.8-6.4l-91.733-119.467q-5.333-8.533-1.6-17.067t13.333-8.533zM192 64q-25.6 0-44.8 19.2t-19.2 44.8v640q0 25.6 19.2 44.8t44.8 19.2h640q25.6 0 44.8-19.2t19.2-44.8v-640q0-25.6-19.2-44.8t-44.8-19.2h-640zM192 128h640v640h-640v-640zM192 768v0z" />
<glyph unicode="&#xe957;" glyph-name="image-add" d="M192 64q-25.6 0-44.8 19.2t-19.2 44.8v640q0 25.6 19.2 44.8t44.8 19.2h404.267q13.6 0 22.8-9.253 9.2-9.254 9.2-22.933 0-13.68-9.2-22.747t-22.8-9.067h-404.267v-640h640v403.2q0 13.6 9.253 22.8t22.933 9.2 22.747-9.2 9.067-22.8v-403.2q0-25.6-19.2-44.8t-44.8-19.2h-640zM778.48 595.2q-13.68 0-22.747 9.2t-9.067 22.8v54.4h-54.4q-13.6 0-22.8 9.253t-9.2 22.933 9.2 22.747 22.8 9.067h54.4v54.4q0 13.6 9.253 22.8t22.933 9.2 22.747-9.2 9.067-22.8v-54.4h54.4q13.6 0 22.8-9.253 9.2-9.254 9.2-22.933 0-13.68-9.2-22.747t-22.8-9.067h-54.4v-54.4q0-13.6-9.253-22.8t-22.933-9.2zM289.067 236.8h446.933q10.667 0 14.933 8.533t-2.133 17.067l-121.6 162.133q-5.333 6.4-12.8 6.4t-12.8-6.4l-122.667-161.067-87.467 115.2q-5.333 6.4-12.8 6.4t-12.8-6.4l-89.6-116.267q-5.333-8.533-0.8-17.067t13.6-8.533zM192 531.2v0z" />
<glyph unicode="&#xe958;" glyph-name="image-landscape" d="M284.8 277.333h455.467q9.067 0 13.6 8.533t-0.8 17.067l-124.8 169.6q-5.333 6.4-12.8 6.4t-12.8-6.4l-126.933-168.533-85.333 119.467q-5.333 6.4-12.8 6.933t-12.8-5.867l-92.8-121.6q-6.4-8.533-1.6-17.067t14.4-8.533zM149.333 106.667q-25.6 0-44.8 19.2t-19.2 44.8v554.667q0 25.6 19.2 44.8t44.8 19.2h725.333q26.4 0 45.2-19.2t18.8-44.8v-554.667q0-25.6-18.8-44.8t-45.2-19.2h-725.333zM149.333 170.667v0zM149.333 170.667h725.333v554.667h-725.333v-554.667z" />
<glyph unicode="&#xe959;" glyph-name="image-off" d="M192 64q-26.4 0-45.2 18.8t-18.8 45.2v609.067l-65.067 65.067q-9.6 9.6-9.067 22.933t10.133 22.933 22.4 9.6 22.4-9.6l812.8-813.867q9.6-9.6 9.6-22.4t-9.6-22.816q-9.6-9.184-22.4-9.184t-22.4 9.6l-75.733 74.667h-609.067zM192 128h545.067l-128 128h-317.867q-10.667 0-14.933 9.067t2.133 17.6l92.8 107.733q5.333 5.333 12.267 5.333t12.267-6.4l73.6-100.267 49.067 58.667-326.4 326.4v-546.133zM896 151.467l-64 64v552.533h-552.533l-64 64h616.533q26.4 0 45.2-18.8t18.8-45.2v-616.533z" />
<glyph unicode="&#xe95a;" glyph-name="images" d="M400 338.133h353.067q9.6 0 14.4 8.533t-1.6 17.067l-103.467 139.733q-5.333 6.4-12.8 6.4t-12.8-6.4l-97.067-126.933-59.733 76.8q-5.333 6.4-12.8 5.867t-12.8-6.933l-67.2-88.533q-6.4-8.533-2-17.067t14.8-8.533zM277.333 149.333q-25.6 0-44.8 19.2t-19.2 44.8v597.333q0 25.6 19.2 44.8t44.8 19.2h597.333q25.6 0 44.8-19.2t19.2-44.8v-597.333q0-25.6-19.2-44.8t-44.8-19.2h-597.333zM277.333 213.333h597.333v597.333h-597.333v-597.333zM149.333 21.333q-25.6 0-44.8 19.2t-19.2 44.8v629.333q0 13.6 9.253 22.8 9.254 9.2 22.933 9.2 13.68 0 22.747-9.2t9.067-22.8v-629.333h629.333q13.6 0 22.8-9.253t9.2-22.933-9.2-22.747-22.8-9.067h-629.333zM277.333 810.667v0z" />
<glyph unicode="&#xe95b;" glyph-name="image-search" d="M192 64q-25.6 0-44.8 19.2t-19.2 44.8v640q0 25.6 19.2 44.8t44.8 19.2h227.2v-64h-227.2v-640h640v289.067l64-64v-225.067q0-25.6-19.2-44.8t-44.8-19.2h-640zM910.933 430.933l-119.467 118.4q-22.4-14.933-44.267-21.867t-51.733-6.933q-74.667 0-125.867 51.2t-51.2 125.867 51.2 125.867 125.867 51.2 125.867-51.2 51.2-125.867q0-29.867-8.533-56.533t-23.467-49.067l116.267-116.267q9.6-9.6 9.6-22.4t-9.6-22.4-22.933-9.6-22.933 9.6zM695.467 584.533q49.067 0 81.067 32t32 81.067-32 81.067-81.067 32-81.067-32-32-81.067 32-81.067 81.067-32zM285.867 231.467q-9.6 0-14.4 8.533t1.6 17.067l91.733 118.4q5.333 6.4 12.8 6.4t12.8-6.4l86.4-117.333 125.867 164.267q5.333 6.4 12.8 6.4t12.8-6.4l124.8-165.333q5.333-8.533 1.067-17.067t-13.867-8.533h-454.4z" />
<glyph unicode="&#xe95c;" glyph-name="inbox" d="M480 509.867v169.6q0 13.867 9.067 22.933t22.933 9.067 22.933-9.067 9.067-22.933v-169.6l62.933 62.933q5.333 5.333 11.2 7.467t11.733 2.133 12.267-2.133 10.667-7.467q9.6-9.6 9.6-22.933t-9.6-22.933l-118.4-118.4q-5.333-5.333-10.667-7.467t-11.733-2.133-11.733 2.133-10.667 7.467l-118.4 118.4q-4.267 5.333-6.933 11.2t-2.133 11.733 3.2 12.267 6.933 10.667q9.6 9.6 22.933 9.6t22.933-9.6l61.867-62.933zM192 64q-25.6 0-44.8 19.2t-19.2 44.8v640q0 25.6 19.2 44.8t44.8 19.2h640q25.6 0 44.8-19.2t19.2-44.8v-640q0-25.6-19.2-44.8t-44.8-19.2h-640zM192 128h640v145.067h-155.733q-27.733-42.667-72-65.6t-92.267-22.933-92.267 22.933-72 65.6h-155.733v-145.067zM512 248.533q37.333 0 68.8 18.667t49.6 51.733q7.467 10.667 19.733 14.4t25.067 3.733h156.8v430.933h-640v-430.933h156.8q12.8 0 25.067-3.733t19.733-14.4q18.133-33.067 49.6-51.733t68.8-18.667zM192 128v0z" />
<glyph unicode="&#xe95d;" glyph-name="inbox-empty" d="M192 64q-25.6 0-44.8 19.2t-19.2 44.8v640q0 25.6 19.2 44.8t44.8 19.2h640q25.6 0 44.8-19.2t19.2-44.8v-640q0-25.6-19.2-44.8t-44.8-19.2h-640zM192 128h640v145.067h-155.733q-27.733-42.667-72-65.6t-92.267-22.933-92.267 22.933-72 65.6h-155.733v-145.067zM512.018 248.533q37.315 0 68.782 18.667t49.6 51.733q7.467 10.667 19.733 14.4t25.067 3.733h156.8v430.933h-640v-430.933h156.8q12.8 0 25.067-3.733t19.733-14.4q18.133-33.067 49.618-51.733t68.8-18.667zM192 128v0z" />
<glyph unicode="&#xe95e;" glyph-name="inbox-settings" d="M192 106.667q-25.6 0-44.8 19.2t-19.2 44.8v640q0 25.6 19.2 44.8t44.8 19.2h640q25.6 0 44.8-19.2t19.2-44.8v-263.467q-14.933 6.4-30.933 11.733t-33.067 8.533v243.2h-640v-430.933h156.8q17.067 0 27.2-3.733t17.6-14.4q13.867-24.533 35.733-41.6t48.533-24.533q-2.133-17.067-1.067-33.067t3.2-32q-39.467 6.4-74.667 28.267t-57.6 57.067h-155.733v-145.067h302.933q6.4-17.067 14.4-33.067t18.667-30.933h-336zM192 170.667v0zM738.133 115.2q-24.533 7.467-44.8 19.733t-35.2 26.133l-32-14.933q-5.333-2.133-11.2-1.067t-9.067 6.4l-22.4 34.133q-3.2 5.333-2.133 10.667t6.4 9.6l28.8 23.467q-5.333 20.267-5.333 44.267t5.333 44.267l-28.8 23.467q-5.333 4.267-6.4 9.6t2.133 10.667l22.4 35.2q3.2 5.333 9.067 6.4t11.2-1.067l32-14.933q14.933 12.8 35.2 25.067t44.8 19.733l4.267 38.4q1.067 6.4 5.333 10.133t10.667 3.733h35.2q6.4 0 10.667-3.733t5.333-10.133l4.267-38.4q24.533-7.467 44.8-19.733t35.2-25.067l32 14.933q5.333 2.133 11.2 1.067t9.067-6.4l22.4-35.2q3.2-5.333 2.133-10.667t-6.4-9.6l-28.8-23.467q5.333-20.267 5.333-44.267t-5.333-44.267l28.8-23.467q5.333-4.267 6.4-9.6t-2.133-10.667l-22.4-34.133q-3.2-5.333-9.067-6.4t-11.2 1.067l-32 14.933q-14.933-13.867-35.2-26.133t-44.8-19.733l-4.267-37.333q-1.067-6.4-5.333-10.133t-10.667-3.733h-35.2q-6.4 0-10.667 3.733t-5.333 10.133l-4.267 37.333zM775.467 165.333q46.933 0 77.867 30.933t30.933 77.867-30.933 77.867-77.867 30.933-77.867-30.933-30.933-77.867 30.933-77.867 77.867-30.933z" />
<glyph unicode="&#xe95f;" glyph-name="info" d="M515.387 234.667q13.68 0 22.747 9.2t9.067 22.8v192q0 13.6-9.253 22.8t-22.933 9.2-22.747-9.2-9.067-22.8v-192q0-13.6 9.253-22.8 9.254-9.2 22.933-9.2zM511.981 569.6q14.953 0 25.086 9.813t10.133 24.32q0 15.413-10.114 25.84t-25.067 10.427-25.086-10.427-10.133-25.84q0-14.507 10.114-24.32 10.115-9.813 25.067-9.813zM512.284 21.333q-88.25 0-165.867 33.6t-135.75 91.733-91.733 135.83q-33.6 77.696-33.6 166.036t33.6 166.036 91.733 135.297 135.83 91.2q77.696 33.6 166.036 33.6t166.036-33.6 135.297-91.2 91.2-135.467 33.6-166.116-33.6-165.867-91.2-135.554-135.467-91.733-166.116-33.796zM512.533 85.333q150.933 0 256.533 106.133t105.6 257.067-105.399 256.533q-105.401 105.6-257.267 105.6-150.4 0-256.533-105.399-106.133-105.401-106.133-257.267 0-150.4 106.133-256.533t257.067-106.133z" />
<glyph unicode="&#xe960;" glyph-name="input" d="M467.2 282.667q-9.6 9.6-9.6 22.933t9.6 22.933l86.4 86.4h-436.267q-13.6 0-22.8 9.253t-9.2 22.933 9.2 22.747 22.8 9.067h436.267l-87.467 87.467q-8.533 8.605-8.533 21.902 0 13.298 9.657 22.898 9.655 9.6 22.933 9.6 13.277 0 22.877-9.6l141.867-141.867q5.333-5.333 7.467-10.809t2.133-11.733q0-6.258-2.133-11.591t-7.467-10.667l-142.933-142.933q-8.8-8.533-22-8.533t-22.8 9.6zM149.333 106.667q-25.6 0-44.8 19.2t-19.2 44.8v148.267q0 13.6 9.253 22.8 9.254 9.2 22.933 9.2 13.68 0 22.747-9.2t9.067-22.8v-148.267h725.333v554.667h-725.333v-150.4q0-13.6-9.253-22.8-9.254-9.2-22.933-9.2-13.68 0-22.747 9.2t-9.067 22.8v150.4q0 25.6 19.2 44.8t44.8 19.2h725.333q25.6 0 44.8-19.2t19.2-44.8v-554.667q0-25.6-19.2-44.8t-44.8-19.2h-725.333z" />
<glyph unicode="&#xe961;" glyph-name="input-circle" d="M480 485.333v-433.067q0-13.867 9.067-22.933t22.933-9.067 22.933 9.067 9.067 22.933v433.067l99.2-98.133q9.6-8.533 22.4-9.067t22.4 9.067 9.6 22.4-9.6 22.4l-153.6 153.6q-9.6 9.6-22.4 9.6t-22.4-9.6l-153.6-153.6q-9.6-9.6-9.6-22.4t9.6-22.4 22.4-9.6 22.4 9.6l99.2 98.133zM512 810.667q-151.467 0-257.067-105.6t-105.6-257.067q0-42.667 9.067-83.733t28.267-78.4q6.4-12.8 4.8-26.667t-12.267-23.467q-9.6-8.533-21.867-7.467t-18.667 12.8q-26.667 48-40 100.267t-13.333 106.667q0 88.533 33.6 166.4t91.2 135.467 135.467 91.2 166.4 33.6 166.4-33.6 135.467-91.2 91.2-135.467 33.6-166.4q0-54.4-13.333-106.667t-40-100.267q-6.4-11.733-18.667-12.8t-21.867 7.467q-10.667 9.6-12.267 23.467t4.8 26.667q18.133 37.333 27.733 78.4t9.6 83.733q0 151.467-105.6 257.067t-257.067 105.6z" />
<glyph unicode="&#xe962;" glyph-name="insights" d="M117.239 96q-30.839 0-52.706 21.962t-21.867 52.8 21.86 52.705 52.558 21.867q5.582 0 10.915-0.533t13.867-2.667l213.333 213.333q-2.133 8.533-2.667 13.867t-0.533 10.915q0 30.698 21.962 52.558t52.8 21.86 52.705-22.010 21.867-52.917q0-1.873-3.2-24.273l117.333-117.333q8.533 2.133 13.867 2.667t10.667 0.533 10.667-0.533 13.867-2.667l170.667 170.667q-2.133 8.533-2.667 13.867t-0.533 10.915q0 30.698 21.962 52.558t52.8 21.86 52.705-21.962 21.867-52.8-21.86-52.705-52.558-21.867q-5.582 0-10.915 0.533t-13.867 2.667l-170.667-170.667q2.133-8.533 2.667-13.867t0.533-10.915q0-30.698-21.962-52.558t-52.8-21.86-52.705 21.86-21.867 52.558q0 5.582 0.533 10.915t2.667 13.867l-117.333 117.333q-8.533-2.133-13.867-2.667t-10.933-0.533q-1.867 0-24.267 3.2l-213.333-213.333q2.133-8.533 2.667-13.867t0.533-10.915q0-30.698-21.962-52.558-21.961-21.86-52.799-21.86zM170.667 567.467l-21.603 46.663-46.663 21.603 46.663 21.603 21.603 46.663 21.603-46.663 46.663-21.603-46.663-21.603-21.603-46.663zM640 621.867l-32.765 70.702-70.702 32.765 70.702 32.765 32.765 70.702 32.765-70.702 70.702-32.765-70.702-32.765-32.765-70.702z" />
<glyph unicode="&#xe963;" glyph-name="interests" d="M139.733 490.667q-18.133 0-27.2 16t-0.533 32l158.933 285.867q5.333 8.533 12.293 12.267t15.467 3.733 15.44-3.733 12.267-12.267l158.933-285.867q8.533-16-0.533-32t-27.2-16h-317.867zM299.733 64q-70.4 0-120.533 50.133t-50.133 120.533q0 71.467 50.133 121.067t120.533 49.6 120.533-50.133 50.133-120.533-50.133-120.533-120.533-50.133zM299.733 128q44.8 0 75.733 30.933t30.933 75.733-30.933 75.733-75.733 30.933-75.733-30.933-30.933-75.733 30.933-75.733 75.733-30.933zM194.133 554.667h209.067l-104.533 187.733-104.533-187.733zM586.667 64q-13.6 0-22.8 9.2t-9.2 22.8v277.333q0 13.6 9.2 22.8t22.8 9.2h277.333q13.6 0 22.8-9.2t9.2-22.8v-277.333q0-13.6-9.2-22.8t-22.8-9.2h-277.333zM618.667 128h213.333v213.333h-213.333v-213.333zM725.139 512q-6.206 0-12.606 1.6t-11.733 5.867q-64 46.933-101.333 80t-57.067 57.6-25.067 43.733-5.333 38.4q0 48 33.6 81.067t83.733 33.067q27.733 0 53.333-12.8t42.667-37.333q17.067 24.533 42.667 37.333t53.333 12.8q50.133 0 83.733-33.067t33.6-81.067q0-19.2-5.333-38.4t-25.067-43.733-57.067-57.6-101.333-80q-5.333-4.267-11.927-5.867t-12.8-1.6zM725.333 574.933q90.667 74.667 120 106.667t29.333 55.467q0 23.43-13.714 37.849t-37.486 14.418q-13.977 0-27.255-7.467t-33.545-25.6l-37.333-35.2-37.333 35.2q-19.911 18.517-33.422 25.792t-27.378 7.275q-23.772 0-37.486-14.418t-13.714-37.849q0-23.467 29.333-55.467t120-106.667z" />
<glyph unicode="&#xe964;" glyph-name="label" d="M192 149.333q-26.4 0-45.2 18.8t-18.8 45.2v469.333q0 26.4 18.8 45.2t45.2 18.8h448q23.467 0 42.667-12.267t33.067-31.467l154.667-217.6q11.733-16 11.733-36.657t-11.733-38.010l-154.667-217.6q-13.867-19.2-33.067-31.467t-42.667-12.267h-448zM816 448l-164.267 234.667h-459.733v-469.333h459.733l164.267 234.667zM192 448v0z" />
<glyph unicode="&#xe965;" glyph-name="label-2" d="M190.933 247.467l129.067 200.533-129.067 200.533q-21.333 32-2.133 65.067t56.533 33.067h392.431q23.569 0 42.769-12.267t33.067-30.4l155.733-218.667q11.733-17.037 11.733-37.318t-11.733-37.348l-155.733-218.667q-13.867-18.133-33.067-30.4t-42.769-12.267h-392.431q-37.333 0-56.533 33.067t2.133 65.067zM245.333 213.333h405.333l166.4 234.667-166.4 234.667h-405.333l151.467-234.667-151.467-234.667zM396.8 448v0 0z" />
<glyph unicode="&#xe966;" glyph-name="label-2-match" d="M245.333 213.333l151.467 234.667-23.467-36.8q-23.467-36.8-52.267-80.533t-52.267-80.533l-23.467-36.8zM519.467 149.333h-332.8q-19.478 0-28.405 16.533-8.928 16.533 1.739 32.533l160 249.6-160 249.6q-10.667 16-1.739 32.533 8.927 16.533 28.405 16.533h451.2q23.467 0 42.667-12.267t33.067-30.4l182.4-256-16-22.4q-14.933 6.4-28.8 10.133t-25.6 5.867l-174.933 241.067h-405.333l151.467-234.667-151.467-234.667h274.133q-2.133-16-2.133-32t2.133-32zM750.933 174.933l-18.133 18.133q-9.6 9.6-22.933 9.6t-22.933-9.6-9.6-22.4 9.6-22.4l46.933-46.933q7.273-7.467 16.97-7.467t17.164 7.467l108.8 106.667q9.6 9.6 9.6 22.933t-9.6 22.933-22.933 9.6-22.933-9.6l-80-78.933zM781.333-20.267q-82.667 0-141.333 59.2t-58.667 140.267q0 83.664 58.656 142.633 58.656 58.967 141.877 58.967 82.133 0 141.333-58.967 59.2-58.969 59.2-142.633 0-81.067-59.2-140.267t-141.867-59.2z" />
<glyph unicode="&#xe967;" glyph-name="label-add" d="M469.333 149.333v64h182.4l164.267 234.667-164.267 234.667h-459.733v-192h-64v192q0 26.4 18.8 45.2t45.2 18.8h448q23.467 0 42.667-12.267t33.067-31.467l154.667-217.6q11.733-17.037 11.733-37.318t-11.733-37.348l-154.667-217.6q-13.867-19.2-33.067-31.467t-42.667-12.267h-170.667zM245.147 106.667q-13.68 0-22.747 9.2t-9.067 22.8v96h-96q-13.6 0-22.8 9.253t-9.2 22.933 9.2 22.747 22.8 9.067h96v96q0 13.6 9.253 22.8 9.254 9.2 22.933 9.2t22.747-9.2 9.067-22.8v-96h96q13.6 0 22.8-9.253t9.2-22.933-9.2-22.747-22.8-9.067h-96v-96q0-13.6-9.253-22.8-9.254-9.2-22.933-9.2z" />
<glyph unicode="&#xe968;" glyph-name="label-auto" d="M192 149.333q-26.4 0-45.2 18.8t-18.8 45.2v469.333q0 26.4 18.8 45.2t45.2 18.8h448q23.467 0 42.667-12.267t33.067-31.467l154.667-217.6q11.733-17.037 11.733-37.318t-11.733-37.348l-154.667-217.6q-13.867-19.2-33.067-31.467t-42.667-12.267h-448zM192 213.333h459.733l164.267 234.667-164.267 234.667h-459.733v-469.333zM192 448v0zM405.333 402.133l30.933-72.533q4.129-9.6 14.864-9.6 10.736 0 15.003 9.6l30.933 72.533 77.867 34.133q9.6 4.129 9.6 14.864 0 10.736-9.6 15.003l-77.867 33.067-30.933 69.333q-4.129 9.6-14.864 9.6-10.736 0-15.003-9.6l-30.933-69.333-77.867-33.067q-9.6-4.129-9.6-14.864 0-10.736 9.6-15.003l77.867-34.133z" />
<glyph unicode="&#xe969;" glyph-name="label-o" d="M192 149.333q-26.667 0-45.333 18.667t-18.667 45.333v469.333q0 26.667 18.667 45.333t45.333 18.667h448q23.467 0 42.667-12.267t33.067-31.467l154.667-217.6q11.733-17.067 11.733-37.333t-11.733-37.333l-154.667-217.6q-13.867-19.2-33.067-31.467t-42.667-12.267h-448z" />
<glyph unicode="&#xe96a;" glyph-name="label-off" d="M762.667 260.267l-45.867 45.867 100.267 141.867-165.333 234.667h-311.467l-64 64h361.6q27.733 0 45.333-11.2t32.533-32.533l153.6-217.6q11.733-17.037 11.733-37.318t-11.733-37.348l-106.667-150.4zM192 149.333q-24.533 0-44.267 19.733t-19.733 44.267v448q0 14.933 3.2 23.467t7.467 17.067l-56.533 56.533q-9.6 9.6-9.6 22.4t9.6 22.4 22.4 9.6 22.4-9.6l740.267-739.2q8.533-8.605 8.533-21.902t-8.8-22.898-22.4-9.6-23.2 9.6l-140.8 140.8q-5.333-5.333-18.133-8t-25.047-2.667h-445.353zM627.2 213.333l-435.2 435.2v-435.2h435.2z" />
<glyph unicode="&#xe96b;" glyph-name="language" d="M512 21.333q-89.6 0-167.467 33.6t-135.467 91.2-90.667 136-33.067 168 33.067 166.933 90.667 134.933 135.467 90.133 167.467 32.533 167.467-32.533 135.467-90.133 90.667-134.933 33.067-166.933-33.067-168-90.667-136-135.467-91.2-167.467-33.6zM512 83.2q37.333 38.4 62.4 88t41.067 117.867h-205.867q14.933-64 40-115.2t62.4-90.667zM421.333 96q-26.667 40.533-45.867 87.467t-32 105.6h-160q40.533-75.733 93.867-118.933t144-74.133zM603.733 97.067q76.8 24.533 138.133 73.6t98.667 118.4h-158.933q-13.867-57.6-32.533-104.533t-45.333-87.467zM162.133 353.067h169.6q-3.2 28.8-3.733 51.733t-0.533 45.333q0 26.667 1.067 47.467t4.267 46.4h-170.667q-7.467-25.6-10.133-45.867t-2.667-48 2.667-49.6 10.133-47.467zM397.867 353.067h229.333q4.267 33.067 5.333 53.867t1.067 43.2q0 21.333-1.067 41.067t-5.333 52.8h-229.333q-4.267-33.067-5.333-52.8t-1.067-41.067q0-22.4 1.067-43.2t5.333-53.867zM691.2 353.067h170.667q7.467 25.6 10.133 47.467t2.667 49.6-2.667 48-10.133 45.867h-169.6q3.2-37.333 4.267-57.067t1.067-36.8q0-23.467-1.6-44.267t-4.8-52.8zM680.533 608h160q-35.2 73.6-96.533 122.667t-141.333 69.333q26.667-39.467 45.333-85.333t32.533-106.667zM409.6 608h206.933q-11.733 56.533-39.467 109.333t-65.067 93.333q-34.133-28.8-57.6-75.733t-44.8-126.933zM183.467 608h161.067q11.733 57.6 29.867 102.933t45.867 88q-80-20.267-139.733-68.267t-97.067-122.667z" />
<glyph unicode="&#xe96c;" glyph-name="last" d="M267.733 220.8q-9.6 9.6-9.6 22.933t9.6 22.933l181.333 181.333-182.4 182.4q-9.6 9.6-9.067 22.933t10.133 22.933 22.4 9.6 22.4-9.6l205.867-205.867q5.333-5.333 7.467-10.667t2.133-11.733-2.133-11.733-7.467-10.667l-204.8-204.8q-9.6-9.6-22.933-9.6t-22.933 9.6zM736 192q-13.867 0-22.933 9.067t-9.067 22.933v448q0 13.867 9.067 22.933t22.933 9.067 22.933-9.067 9.067-22.933v-448q0-13.867-9.067-22.933t-22.933-9.067z" />
<glyph unicode="&#xe96d;" glyph-name="link" d="M298.667 234.667q-90.667 0-152 61.333t-61.333 152 61.333 152 152 61.333h149.333q13.6 0 22.8-9.253t9.2-22.933-9.2-22.747-22.8-9.067h-149.333q-64 0-106.667-42.667t-42.667-106.667 42.667-106.667 106.667-42.667h149.333q13.6 0 22.8-9.253t9.2-22.933-9.2-22.747-22.8-9.067h-149.333zM378.667 416q-13.6 0-22.8 9.253t-9.2 22.933 9.2 22.747 22.8 9.067h266.667q13.6 0 22.8-9.253 9.2-9.254 9.2-22.933t-9.2-22.747-22.8-9.067h-266.667zM576 234.667q-13.6 0-22.8 9.253t-9.2 22.933 9.2 22.747 22.8 9.067h149.333q64 0 106.667 42.667t42.667 106.667-42.667 106.667-106.667 42.667h-149.333q-13.6 0-22.8 9.253t-9.2 22.933 9.2 22.747 22.8 9.067h149.333q90.667 0 152-61.333t61.333-152-61.333-152-152-61.333h-149.333z" />
<glyph unicode="&#xe96e;" glyph-name="link-off" d="M630.4 416l-60.8 60.8h60.8q12.8 0 22.4-8.533t9.6-21.333-9.6-21.867-22.4-9.067zM800 246.4l-52.267 52.267q55.467 10.667 91.2 51.2t35.733 94.933q0 64-42.667 106.667t-106.667 42.667h-133.333q-13.867 0-22.933 9.067t-9.067 22.933 9.067 22.933 22.933 9.067h133.333q90.667 0 152-61.333t61.333-152q0-69.333-40-121.6t-98.667-76.8zM845.867 19.2l-756.267 755.2q-9.6 9.6-9.6 22.933t9.6 22.933 22.933 9.6 22.933-9.6l756.267-756.267q9.6-9.6 9.6-22.4t-9.6-22.4-22.933-9.6-22.933 9.6zM448 234.667h-149.333q-90.667 0-152 61.333t-61.333 152q0 78.933 47.467 136.533t121.067 72.533l59.733-59.733h-14.933q-64 0-106.667-42.667t-42.667-106.667 42.667-106.667 106.667-42.667h149.333q13.867 0 22.933-9.067t9.067-22.933-9.067-22.933-22.933-9.067zM494.933 416h-101.333q-13.867 0-22.933 9.067t-9.067 22.933 9.067 22.933 22.933 9.067h37.333l64-64z" />
<glyph unicode="&#xe96f;" glyph-name="login" d="M416 284.8q-9.6 9.6-9.6 23.2t9.6 22.667l85.333 85.333h-341.333q-13.6 0-22.8 9.253t-9.2 22.933 9.2 22.747 22.8 9.067h339.2l-86.4 86.4q-8.533 8.533-8.533 21.81 0 13.278 9.828 22.933 9.010 9.657 22.524 9.657t23.115-9.6l141.867-141.867q5.333-5.333 7.467-10.809t2.133-11.733q0-6.258-2.133-11.591t-7.467-10.667l-140.8-140.8q-8.533-8.533-21.867-8.533t-22.933 9.6zM553.6 64q-13.6 0-22.8 9.253t-9.2 22.933 9.2 22.747 22.8 9.067h278.4v640h-278.4q-13.6 0-22.8 9.253-9.2 9.254-9.2 22.933 0 13.68 9.2 22.747t22.8 9.067h278.4q25.6 0 44.8-19.2t19.2-44.8v-640q0-25.6-19.2-44.8t-44.8-19.2h-278.4z" />
<glyph unicode="&#xe970;" glyph-name="logout" d="M688 284.8q-9.6 9.6-9.6 23.2t9.6 22.667l85.333 85.333h-341.333q-13.6 0-22.8 9.253t-9.2 22.933 9.2 22.747 22.8 9.067h339.2l-86.4 86.4q-8.533 8.533-8.533 21.81 0 13.278 9.828 22.933 9.010 9.657 22.524 9.657t23.115-9.6l141.867-141.867q5.333-5.333 7.467-10.809t2.133-11.733q0-6.258-2.133-11.591t-7.467-10.667l-140.8-140.8q-8.533-8.533-21.867-8.533t-22.933 9.6zM192 64q-25.6 0-44.8 19.2t-19.2 44.8v640q0 25.6 19.2 44.8t44.8 19.2h278.4q13.6 0 22.8-9.253 9.2-9.254 9.2-22.933 0-13.68-9.2-22.747t-22.8-9.067h-278.4v-640h278.4q13.6 0 22.8-9.253t9.2-22.933-9.2-22.747-22.8-9.067h-278.4z" />
<glyph unicode="&#xe971;" glyph-name="male" d="M405.333 106.667q-98.133 0-166.4 68.267t-68.267 166.4 68.267 166.4 166.4 68.267q38.4 0 74.667-12.267t67.2-34.667l196.267 196.267h-92.8q-13.6 0-22.8 9.253t-9.2 22.933 9.2 22.747 22.8 9.067h170.667q13.6 0 22.8-9.2t9.2-22.8v-170.667q0-13.6-9.253-22.8t-22.933-9.2-22.747 9.2-9.067 22.8v92.8l-196.267-195.2q22.4-30.933 34.667-67.733t12.267-75.2q0-98.133-68.267-166.4t-166.4-68.267zM405.549 512q-70.615 0-120.749-49.918t-50.133-120.533 49.918-120.749 120.533-50.133 120.749 49.918 50.133 120.533-49.918 120.749-120.533 50.133z" />
<glyph unicode="&#xe972;" glyph-name="masks" d="M512 192q-39.467 0-75.733 11.2t-68.267 32.533q-45.867 3.2-95.467 19.733t-91.2 54.4-68.8 100.267-27.2 155.2v42.667q0 40.533 28.267 68.267t67.733 27.733q37.333 0 65.067-29.333t30.933-72q34.133 8.533 61.333 19.2t46.4 21.333q32 18.133 60.8 28.8t66.133 10.667 66.133-10.667 60.8-28.8q19.2-10.667 46.4-21.333t61.333-19.2q3.2 43.733 30.933 72.533t65.067 28.8q40.533 0 68.267-27.733t27.733-68.267v-42.667q0-92.8-27.2-155.2t-68.8-100.267-91.2-54.4-95.467-19.733q-32-21.333-68.267-32.533t-75.733-11.2zM300.8 295.467q-27.733 34.133-46.933 79.467t-19.2 94.4v138.667q0 22.4-15.467 37.867t-37.867 15.467q-21.333 0-37.333-15.467t-16-37.867v-42.667q0-137.6 59.2-200t113.6-69.867zM512 234.667q93.867 0 164.267 70.933t70.4 163.733v89.6q-40.533 8.533-74.133 21.333t-54.933 25.6q-30.933 18.133-55.467 26.133t-50.133 8-50.133-8-55.467-26.133q-21.333-12.8-54.933-25.6t-74.133-21.333v-89.6q0-92.8 70.933-163.733t163.733-70.933zM723.2 295.467q54.4 7.467 113.6 69.867t59.2 200v42.667q0 22.4-15.467 37.867t-37.867 15.467q-21.333 0-37.333-15.467t-16-37.867v-138.667q0-49.067-17.6-94.4t-48.533-79.467zM406.4 498.133q14.933 5.333 27.2 12.267t22.933 13.333q14.933 8.533 27.2 14.4t28.267 5.867 28.267-5.867 27.2-14.4q11.733-6.4 23.467-13.333t26.667-12.267q8.533-3.2 15.467 1.067t6.933 14.933q0 4.267-2.667 8t-6.933 5.867q-11.733 5.333-21.867 10.667t-19.733 10.667q-17.067 10.667-34.667 18.667t-42.133 8-42.133-8-35.733-18.667q-9.6-5.333-19.2-10.133t-21.333-10.133q-4.267-2.133-6.933-5.867t-2.667-9.067q0-9.6 6.933-14.4t15.467-1.6z" />
<glyph unicode="&#xe973;" glyph-name="menu" d="M160 192q-13.6 0-22.8 9.253t-9.2 22.933 9.2 22.747 22.8 9.067h704q13.6 0 22.8-9.253t9.2-22.933-9.2-22.747-22.8-9.067h-704zM160 416q-13.6 0-22.8 9.253t-9.2 22.933 9.2 22.747 22.8 9.067h704q13.6 0 22.8-9.253 9.2-9.254 9.2-22.933t-9.2-22.747-22.8-9.067h-704zM160 640q-13.6 0-22.8 9.253-9.2 9.254-9.2 22.933 0 13.68 9.2 22.747t22.8 9.067h704q13.6 0 22.8-9.253 9.2-9.254 9.2-22.933 0-13.68-9.2-22.747t-22.8-9.067h-704z" />
<glyph unicode="&#xe974;" glyph-name="menu-open" d="M160 192q-13.6 0-22.8 9.253t-9.2 22.933 9.2 22.747 22.8 9.067h490.667q13.6 0 22.8-9.253t9.2-22.933-9.2-22.747-22.8-9.067h-490.667zM160 418.133q-13.6 0-22.8 9.253t-9.2 22.933 9.2 22.747 22.8 9.067h362.667q13.6 0 22.8-9.253 9.2-9.254 9.2-22.933t-9.2-22.747-22.8-9.067h-362.667zM160 640q-13.6 0-22.8 9.253-9.2 9.254-9.2 22.933 0 13.68 9.2 22.747t22.8 9.067h490.667q13.6 0 22.8-9.253 9.2-9.254 9.2-22.933 0-13.68-9.2-22.747t-22.8-9.067h-490.667zM741.333 449.067l133.333-133.333q9.6-9.6 9.067-22.4t-10.133-22.4-22.933-9.6-22.933 9.6l-155.733 155.733q-9.6 9.6-9.6 22.4t9.6 22.4l155.733 155.733q9.6 9.6 22.933 9.6t22.933-9.6 9.6-22.933-9.6-22.933l-132.267-132.267z" />
<glyph unicode="&#xe975;" glyph-name="more" d="M511.849 106.667q-21.182 0-36.115 15.085-14.933 15.084-14.933 36.267 0 21.182 15.085 36.115t36.267 14.933 36.115-15.085q14.933-15.084 14.933-36.267 0-21.182-15.085-36.115-15.084-14.933-36.267-14.933zM511.849 396.8q-21.182 0-36.115 15.085-14.933 15.084-14.933 36.267 0 21.182 15.085 36.115t36.267 14.933 36.115-15.085 14.933-36.267-15.085-36.115q-15.084-14.933-36.267-14.933zM511.849 686.933q-21.182 0-36.115 15.085-14.933 15.084-14.933 36.267t15.085 36.115 36.267 14.933 36.115-15.085q14.933-15.084 14.933-36.267t-15.085-36.115q-15.084-14.933-36.267-14.933z" />
<glyph unicode="&#xe976;" glyph-name="next" d="M377.6 215.467q-8.533 10.667-9.067 23.467t9.067 22.4l187.733 187.733-188.8 188.8q-8.533 8.533-8 22.933t9.067 22.933q10.667 10.667 22.933 10.133t21.867-10.133l212.267-212.267q5.333-5.333 7.467-10.667t2.133-11.733-2.133-11.733-7.467-10.667l-211.2-211.2q-9.6-9.6-22.4-9.067t-23.467 9.067z" />
<glyph unicode="&#xe977;" glyph-name="next-plan" d="M662.4 433.067h-61.867q-13.6 0-22.8-9.253t-9.2-22.933 9.2-22.747 22.8-9.067h135.467q13.6 0 22.8 9.2t9.2 22.8v135.467q0 13.6-9.253 22.8t-22.933 9.2-22.747-9.2-9.067-22.8v-59.733q-39.467 57.6-97.067 86.933t-112.886 29.333q-86.58 0-151.647-53.867t-82.133-133.867q-3.2-13.867 5.6-25.067t22.4-11.2 23.822 10.159 14.311 23.974q14.933 55.467 60.8 90.667t106.742 35.2q44.724 0 91.658-25.6t76.8-70.4zM512.284 21.333q-88.25 0-165.867 33.6t-135.75 91.733-91.733 135.83q-33.6 77.696-33.6 166.036t33.6 166.036 91.733 135.297 135.83 91.2q77.696 33.6 166.036 33.6t166.036-33.6 135.297-91.2 91.2-135.467 33.6-166.116-33.6-165.867-91.2-135.554-135.467-91.733-166.116-33.796zM512.533 85.333q150.933 0 256.533 106.133t105.6 257.067-105.399 256.533q-105.401 105.6-257.267 105.6-150.4 0-256.533-105.399-106.133-105.401-106.133-257.267 0-150.4 106.133-256.533t257.067-106.133z" />
<glyph unicode="&#xe978;" glyph-name="night" d="M558.933-21.333q-89.6 0-168 34.133t-136.533 92.267-92.267 136.533-34.133 168q0 140.8 82.667 253.867t217.067 155.733q18.133 5.333 33.067-5.333t12.8-28.8q-7.467-93.867 25.067-180.8t99.733-154.133 154.667-100.267 181.333-25.6q18.133 2.133 28.267-13.867t4.8-34.133q-42.667-133.333-155.2-215.467t-253.333-82.133zM558.933 42.667q106.667 0 194.133 60.8t140.8 154.667q-96 8.533-184.533 44.267t-156.267 102.933-102.933 155.2-43.733 182.933q-93.867-51.2-154.133-139.2t-60.267-194.667q0-152.889 107.022-259.911t259.911-107.022z" />
<glyph unicode="&#xe979;" glyph-name="outbox" d="M483.2 587.733l-61.867-61.867q-9.6-9.6-22.4-9.6t-22.817 9.6q-9.183 9.6-9.183 22.933t9.6 22.933l116.267 117.333q5.333 5.333 10.809 7.467t11.733 2.133q6.258 0 11.591-2.133t10.667-7.467l117.333-117.333q9.6-9.6 9.6-22.4t-9.183-22.4q-10.017-9.6-23.35-9.6t-22.933 9.6l-61.867 60.8v-169.6q0-13.6-9.253-22.8t-22.933-9.2-22.747 9.2-9.067 22.8v169.6zM192 64q-25.6 0-44.8 19.2t-19.2 44.8v640q0 25.6 19.2 44.8t44.8 19.2h640q25.6 0 44.8-19.2t19.2-44.8v-640q0-25.6-19.2-44.8t-44.8-19.2h-640zM192 128h640v145.067h-155.733q-27.733-42.667-72-65.6t-92.267-22.933-92.267 22.933-72 65.6h-155.733v-145.067zM512.018 248.533q37.315 0 68.782 18.667t49.6 51.733q7.467 10.667 19.733 14.4t25.067 3.733h156.8v430.933h-640v-430.933h156.8q12.8 0 25.067-3.733t19.733-14.4q18.133-33.067 49.618-51.733t68.8-18.667zM192 128v0z" />
<glyph unicode="&#xe97a;" glyph-name="output" d="M192 64q-26.4 0-45.2 18.8t-18.8 45.2v640q0 26.4 18.8 45.2t45.2 18.8h640q26.4 0 45.2-18.8t18.8-45.2v-64q0-13.6-9.253-22.8t-22.933-9.2-22.747 9.2-9.067 22.8v64h-640v-640h640v64q0 13.6 9.253 22.8t22.933 9.2 22.747-9.2 9.067-22.8v-64q0-26.4-18.8-45.2t-45.2-18.8h-640zM814.933 416h-374.4q-13.6 0-22.8 9.253t-9.2 22.933 9.2 22.747 22.8 9.067h374.4l-98.133 99.2q-8.533 9.6-9.067 22.507t9.067 22.293q9.6 9.6 22.4 9.6t22.4-9.6l153.6-153.6q9.6-9.6 9.6-22.4t-9.6-22.4l-153.6-153.6q-9.6-9.6-22.4-9.6t-22.4 9.6-9.067 22.4 9.067 22.4l98.133 99.2z" />
<glyph unicode="&#xe97b;" glyph-name="output-circle" d="M544 142.933l99.2 98.133q9.6 8.533 22.933 8.533t21.867-8.533q9.6-9.6 9.6-22.4t-9.6-22.4l-153.6-153.6q-9.6-9.6-22.4-9.6t-22.4 9.6l-153.6 153.6q-9.6 9.6-9.6 22.4t9.6 22.4 22.4 9.6 22.4-9.6l99.2-98.133v433.067q0 13.867 9.067 22.933t22.933 9.067 22.933-9.067 9.067-22.933v-433.067zM512 810.667q-151.467 0-257.067-105.6t-105.6-257.067q0-42.667 9.067-83.733t28.267-78.4q6.4-12.8 4.8-26.667t-12.267-23.467q-9.6-8.533-21.867-7.467t-18.667 12.8q-26.667 48-40 100.267t-13.333 106.667q0 88.533 33.6 166.4t91.2 135.467 135.467 91.2 166.4 33.6 166.4-33.6 135.467-91.2 91.2-135.467 33.6-166.4q0-54.4-13.333-106.667t-40-100.267q-6.4-11.733-18.667-12.8t-21.867 7.467q-10.667 9.6-12.267 23.467t4.8 26.667q18.133 37.333 27.733 78.4t9.6 83.733q0 151.467-105.6 257.067t-257.067 105.6z" />
<glyph unicode="&#xe97c;" glyph-name="paid" d="M512 21.333q-87.467 0-165.333 33.6t-136 91.733-91.733 136-33.6 165.333q0 88.533 33.6 166.4t91.733 135.467 136 91.2 165.333 33.6q88.533 0 166.4-33.6t135.467-91.2 91.2-135.467 33.6-166.4q0-87.467-33.6-165.333t-91.2-136-135.467-91.733-166.4-33.6zM512 85.333q151.467 0 257.067 106.133t105.6 256.533q0 151.467-105.6 257.067t-257.067 105.6q-150.4 0-256.533-105.6t-106.133-257.067q0-150.4 106.133-256.533t256.533-106.133zM510.933 141.867q11.733 0 20.267 9.067t8.533 20.8v25.6q64 7.467 100.8 43.2t36.8 91.2-30.4 88.533-105.067 57.6q-67.2 22.4-92.267 44.267t-25.067 57.067q0 33.067 24 51.733t65.6 18.667q25.6 0 45.867-9.6t35.2-28.8q7.467-8.533 18.133-11.733t20.267 2.133q11.733 5.333 15.467 17.067t-3.733 21.333q-18.133 25.6-44.267 40.533t-59.2 18.133v25.6q0 11.733-8.533 20.267t-20.267 8.533-20.8-8.533-9.067-20.267v-25.6q-54.4-7.467-85.867-39.467t-31.467-80q0-52.267 27.2-83.2t100.8-58.667q75.733-28.8 100.267-50.133t24.533-55.467q0-35.2-28.8-59.2t-70.4-24q-35.2 0-64.533 17.067t-45.333 48q-5.333 8.533-14.4 13.333t-18.667 1.6q-13.867-5.333-18.667-16.533t2.667-22.933q21.333-35.2 50.667-57.067t69.867-32.533v-28.8q0-11.733 9.067-20.267t20.8-8.533z" />
<glyph unicode="&#xe97d;" glyph-name="palette" d="M512 21.333q-87.467 0-165.333 33.6t-136 91.733-91.733 136-33.6 165.333q0 90.667 34.133 168.533t93.333 135.467 138.667 90.133 170.133 32.533q84.267 0 160-28.267t132.8-78.4 90.667-118.933 33.6-150.933q0-115.2-67.2-181.867t-178.133-66.667h-80q-19.2 0-33.067-14.933t-13.867-33.067q0-28.8 15.467-49.067t15.467-46.933q0-40.533-22.4-62.4t-62.933-21.867zM263.467 420.267q21.333 0 37.333 16t16 37.333-16 37.333-37.333 16-37.333-16-16-37.333 16-37.333 37.333-16zM397.867 601.6q21.333 0 37.333 16t16 37.333-16 37.333-37.333 16-37.333-16-16-37.333 16-37.333 37.333-16zM626.133 601.6q21.333 0 37.333 16t16 37.333-16 37.333-37.333 16-37.333-16-16-37.333 16-37.333 37.333-16zM765.867 420.267q21.333 0 37.333 16t16 37.333-16 37.333-37.333 16-37.333-16-16-37.333 16-37.333 37.333-16zM512 85.333q11.733 0 16.533 4.8t4.8 15.467q0 14.933-15.467 27.733t-15.467 56.533q0 49.067 32 86.4t81.067 37.333h77.867q81.067 0 131.2 47.467t50.133 137.067q0 140.8-106.667 226.667t-246.4 85.867q-155.733 0-264-105.067t-108.267-257.6q0-150.4 106.133-256.533t256.533-106.133z" />
<glyph unicode="&#xe97e;" glyph-name="patient" d="M725.333 288q-53.333 0-90.667 37.333t-37.333 90.667 37.333 90.667 90.667 37.333 90.667-37.333 37.333-90.667-37.333-90.667-90.667-37.333zM725.333 352q27.2 0 45.6 18.4t18.4 45.6-18.4 45.6-45.6 18.4-45.6-18.4-18.4-45.6 18.4-45.6 45.6-18.4zM501.333-10.667q-13.6 0-22.8 9.2t-9.2 22.8v91.733q0 22.4 10.667 42.133t29.867 31.467q29.867 18.133 50.667 26.667t54.933 17.067q10.311 2.133 20.622 0.533t16.711-10.133l72.533-93.867 72.533 93.867q6.667 8.381 16.667 10.058t20.667-0.458q34.133-8.533 54.4-17.067t50.133-26.667q19.2-11.733 30.4-31.467t11.2-42.133v-91.733q0-13.6-9.2-22.8t-22.8-9.2h-448zM533.333 53.333h167.467l-87.467 113.067q-21.333-8.533-41.6-18.667t-38.4-21.867v-72.533zM749.867 53.333h167.467v72.533q-18.133 11.733-37.867 21.867t-41.067 18.667l-88.533-113.067zM192 128v0zM192 64q-26.4 0-45.2 18.8t-18.8 45.2v640q0 26.4 18.8 45.2t45.2 18.8h640q26.4 0 45.2-18.8t18.8-45.2v-263.467q-11.733 21.333-27.733 39.467t-36.267 32v192h-640v-640h213.333v-64h-213.333zM330.667 597.333h331.733q14.933 5.333 30.763 8t32.171 2.667v53.333h-394.667q-13.6 0-22.8-9.253t-9.2-22.933 9.2-22.747 22.8-9.067zM330.667 416h202.667q0 16 2.667 32.533t8 31.467h-213.333q-13.6 0-22.8-9.253-9.2-9.254-9.2-22.933t9.2-22.747 22.8-9.067zM330.667 234.667h136.533q18.133 13.867 38.4 22.933t41.6 17.6q-4.267 11.733-11.733 17.6t-22.4 5.867h-182.4q-13.6 0-22.8-9.253t-9.2-22.933 9.2-22.747 22.8-9.067z" />
<glyph unicode="&#xe97f;" glyph-name="patient-o" d="M725.333 288q-53.333 0-90.667 37.333t-37.333 90.667 37.333 90.667 90.667 37.333 90.667-37.333 37.333-90.667-37.333-90.667-90.667-37.333zM405.333 113.067v-49.067h-213.333q-26.4 0-45.2 18.8t-18.8 45.2v640q0 26.4 18.8 45.2t45.2 18.8h640q26.4 0 45.2-18.8t18.8-45.2v-263.467q-24.533 48-70.4 75.733t-100.267 27.733v53.333h-394.667q-13.6 0-22.8-9.253t-9.2-22.933 9.2-22.747 22.8-9.067h331.733q-40.533-14.933-72-45.867t-46.4-71.467h-213.333q-13.6 0-22.8-9.253-9.2-9.254-9.2-22.933t9.2-22.747 22.8-9.067h202.667q0-33.067 10.667-62.933t29.867-54.4h-243.2q-13.6 0-22.8-9.253t-9.2-22.933 9.2-22.747 22.8-9.067h135.467q-28.8-21.333-44.8-53.867t-16-67.733zM501.333-10.667q-13.6 0-22.8 9.2t-9.2 22.8v91.733q0 22.4 10.667 42.133t29.867 31.467q29.867 18.133 50.667 26.667t54.933 17.067q10.311 2.133 20.622 0.533t16.711-10.133l72.533-93.867 72.533 93.867q6.667 8.381 16.667 10.058t20.667-0.458q34.133-8.533 54.4-17.067t50.133-26.667q19.2-11.733 30.4-31.467t11.2-42.133v-91.733q0-13.6-9.2-22.8t-22.8-9.2h-448z" />
<glyph unicode="&#xe980;" glyph-name="payments" d="M576 384q-53.333 0-90.667 37.333t-37.333 90.667 37.333 90.667 90.667 37.333 90.667-37.333 37.333-90.667-37.333-90.667-90.667-37.333zM234.667 234.667q-26.4 0-45.2 18.8t-18.8 45.2v426.667q0 26.4 18.8 45.2t45.2 18.8h682.667q26.4 0 45.2-18.8t18.8-45.2v-426.667q0-26.4-18.8-45.2t-45.2-18.8h-682.667zM341.333 298.667h469.333q0 44.8 30.933 75.733t75.733 30.933v213.333q-44.8 0-75.733 30.933t-30.933 75.733h-469.333q0-44.8-30.933-75.733t-75.733-30.933v-213.333q44.8 0 75.733-30.933t30.933-75.733zM106.667 106.667q-26.4 0-45.2 18.8t-18.8 45.2v458.667q0 13.6 9.253 22.8t22.933 9.2 22.747-9.2 9.067-22.8v-458.667h714.667q13.6 0 22.8-9.253t9.2-22.933-9.2-22.747-22.8-9.067h-714.667zM234.667 298.667v0z" />
<glyph unicode="&#xe981;" glyph-name="previous" d="M574.933 215.467l-211.2 211.2q-5.333 5.333-7.467 10.667t-2.133 11.733 2.133 11.733 7.467 10.667l212.267 212.267q9.6 9.6 22.933 9.6t22.933-9.6 9.067-23.467-10.133-23.467l-187.733-187.733 188.8-188.8q9.6-9.6 9.6-22.4t-9.6-22.4-23.467-9.6-23.467 9.6z" />
<glyph unicode="&#xe982;" glyph-name="publish" d="M511.813 106.667q-13.68 0-22.747 9.2t-9.067 22.8v363.733l-105.6-105.6q-9.6-9.6-22.4-9.067t-22.4 10.133-9.6 22.933 9.6 22.933l160 160q5.333 5.333 10.809 7.467t11.733 2.133 11.591-2.133 10.667-7.467l161.067-161.067q9.6-9.6 9.6-22.4t-9.6-22.4-22.933-9.6-22.933 9.6l-105.6 104.533v-363.733q0-13.6-9.253-22.8t-22.933-9.2zM202.48 572.8q-13.68 0-22.747 9.2t-9.067 22.8v120.533q0 25.6 19.2 44.8t44.8 19.2h554.667q25.6 0 44.8-19.2t19.2-44.8v-120.533q0-13.6-9.253-22.8t-22.933-9.2-22.747 9.2-9.067 22.8v120.533h-554.667v-120.533q0-13.6-9.253-22.8-9.254-9.2-22.933-9.2z" />
<glyph unicode="&#xe983;" glyph-name="radio" d="M512 21.333q-87.467 0-165.333 33.6t-136 91.733-91.733 136-33.6 165.333q0 88.533 33.6 166.4t91.733 135.467 136 91.2 165.333 33.6q88.533 0 166.4-33.6t135.467-91.2 91.2-135.467 33.6-166.4q0-87.467-33.6-165.333t-91.2-136-135.467-91.733-166.4-33.6zM512 85.333q151.467 0 257.067 106.133t105.6 256.533q0 151.467-105.6 257.067t-257.067 105.6q-150.4 0-256.533-105.6t-106.133-257.067q0-150.4 106.133-256.533t256.533-106.133z" />
<glyph unicode="&#xe984;" glyph-name="radio-check" d="M512 249.6q83.2 0 140.8 57.6t57.6 140.8-57.6 140.8-140.8 57.6-140.8-57.6-57.6-140.8 57.6-140.8 140.8-57.6zM512 21.333q-87.467 0-165.333 33.6t-136 91.733-91.733 136-33.6 165.333q0 88.533 33.6 166.4t91.733 135.467 136 91.2 165.333 33.6q88.533 0 166.4-33.6t135.467-91.2 91.2-135.467 33.6-166.4q0-87.467-33.6-165.333t-91.2-136-135.467-91.733-166.4-33.6zM512 85.333q151.467 0 257.067 106.133t105.6 256.533q0 151.467-105.6 257.067t-257.067 105.6q-150.4 0-256.533-105.6t-106.133-257.067q0-150.4 106.133-256.533t256.533-106.133z" />
<glyph unicode="&#xe985;" glyph-name="recommend" d="M384 219.733h245.333q14.933 0 25.067 6.4t17.6 19.2l83.2 194.133q2.133 5.333 3.733 16t1.6 16v25.6q0 14.933-6.933 21.867t-21.867 6.933h-228.267l30.933 147.2q2.133 8.533 0 16t-7.467 12.8l-22.4 23.467-171.733-185.6-8.533-17.067q-4.267-8.533-4.267-18.133v-220.8q0-24.533 19.2-44.267t44.8-19.733zM512 21.333q-87.467 0-165.333 33.6t-136 91.733-91.733 136-33.6 165.333q0 88.533 33.6 166.4t91.733 135.467 136 91.2 165.333 33.6q88.533 0 166.4-33.6t135.467-91.2 91.2-135.467 33.6-166.4q0-87.467-33.6-165.333t-91.2-136-135.467-91.733-166.4-33.6zM512 85.333q151.467 0 257.067 106.133t105.6 256.533q0 151.467-105.6 257.067t-257.067 105.6q-150.4 0-256.533-105.6t-106.133-257.067q0-150.4 106.133-256.533t256.533-106.133z" />
<glyph unicode="&#xe986;" glyph-name="redo" d="M418.133 149.333q-101.333 0-174.4 68.267t-73.067 168.533 73.067 168.533 174.4 68.267h313.6l-99.2 99.2q-9.6 9.6-9.6 22.4t9.6 22.4 22.4 9.6 22.4-9.6l153.6-153.6q5.333-5.333 7.467-10.667t2.133-11.733-2.133-11.733-7.467-10.667l-153.6-153.6q-9.6-9.6-22.4-9.6t-22.4 9.6-9.6 22.4 9.6 22.4l99.2 99.2h-314.667q-74.667 0-128.533-49.6t-53.867-123.2 53.867-123.2 128.533-49.6h276.267q13.867 0 22.933-9.067t9.067-22.933-9.067-22.933-22.933-9.067h-275.2z" />
<glyph unicode="&#xe987;" glyph-name="refresh" d="M512 106.667q-141.867 0-241.6 99.733t-99.733 241.6 99.733 241.6 241.6 99.733q90.667 0 158.933-36.8t118.4-100.8v105.6q0 13.867 9.067 22.933t22.933 9.067 22.933-9.067 9.067-22.933v-206.933q0-13.867-9.067-22.933t-22.933-9.067h-206.933q-13.867 0-22.933 9.067t-9.067 22.933 9.067 22.933 22.933 9.067h147.2q-40.533 64-103.467 103.467t-146.133 39.467q-116.267 0-196.8-80.533t-80.533-196.8 80.533-196.8 196.8-80.533q83.2 0 152.533 44.267t103.467 118.933q4.267 8.533 13.867 14.933t19.2 6.4q18.133 0 26.133-11.733t1.6-27.733q-39.467-94.933-125.333-152t-191.467-57.067z" />
<glyph unicode="&#xe988;" glyph-name="remove" d="M245.333 416q-13.6 0-22.8 9.253t-9.2 22.933 9.2 22.747 22.8 9.067h533.333q13.6 0 22.8-9.253 9.2-9.254 9.2-22.933t-9.2-22.747-22.8-9.067h-533.333z" />
<glyph unicode="&#xe989;" glyph-name="rotate-left" d="M168.533 456.533q-16 0-25.6 11.2t-6.4 26.133q7.467 33.067 19.733 64t29.333 59.733q8.533 13.867 22.933 14.933t26.133-10.667q8.533-7.467 9.6-19.2t-4.267-21.333q-14.933-24.533-25.067-49.6t-15.467-49.6q-2.133-11.733-10.667-18.667t-20.267-6.933zM427.733 27.733q-30.933 7.467-61.867 19.733t-58.667 29.333q-13.867 8.533-14.933 23.467t10.667 27.733q7.467 7.467 18.133 8.533t19.2-4.267q24.533-14.933 48.533-25.067t49.6-16.533q10.667-2.133 18.133-11.2t7.467-20.8q0-16-10.667-25.067t-25.6-5.867zM185.6 198.4q-17.067 27.733-29.333 59.2t-19.733 65.6q-3.2 14.933 5.867 26.133t26.133 11.2q10.667 0 19.733-6.933t11.2-18.667q5.333-26.667 14.933-51.733t24.533-47.467q6.4-9.6 5.333-21.333t-9.6-20.267q-11.733-11.733-26.133-10.667t-22.933 14.933zM596.267 28.8q-14.933-4.267-25.6 4.8t-10.667 25.067q0 10.667 7.467 19.733t18.133 12.267q107.733 28.8 177.067 114.667t69.333 203.2q0 135.467-92.267 227.733t-227.733 92.267h-21.333l60.8-60.8q9.6-9.6 9.6-23.467t-9.6-23.467-23.467-9.6-23.467 9.6l-117.333 117.333q-5.333 5.333-7.467 10.667t-2.133 11.733 2.133 11.733 7.467 10.667l117.333 117.333q9.6 9.6 23.467 9.6t23.467-9.6 9.6-23.467-9.6-23.467l-60.8-60.8h21.333q161.067 0 272.533-111.467t111.467-272.533q0-139.733-83.733-243.733t-216-136z" />
</font>
</defs>
</svg>
